<svg width="215" height="6" viewBox="0 0 215 6" fill="none" xmlns="http://www.w3.org/2000/svg">
<g opacity="0.3">
<ellipse cx="2.5" cy="3" rx="2.5" ry="2.5" fill="#FF2041"/>
<ellipse cx="12.5" cy="3" rx="2.5" ry="2.5" fill="#FF2041"/>
<ellipse cx="22.5" cy="3" rx="2.5" ry="2.5" fill="#FF2041"/>
<ellipse cx="32.5" cy="3" rx="2.5" ry="2.5" fill="#FF2041"/>
<ellipse cx="42.5" cy="3" rx="2.5" ry="2.5" fill="#FF2041"/>
<ellipse cx="52.5" cy="3" rx="2.5" ry="2.5" fill="#FF2041"/>
<ellipse cx="62.5" cy="3" rx="2.5" ry="2.5" fill="#FF2041"/>
<ellipse cx="72.5" cy="3" rx="2.5" ry="2.5" fill="#FF2041"/>
<ellipse cx="82.5" cy="3" rx="2.5" ry="2.5" fill="#FF2041"/>
<ellipse cx="92.5" cy="3" rx="2.5" ry="2.5" fill="#FF2041"/>
<ellipse cx="102.5" cy="3" rx="2.5" ry="2.5" fill="#FF2041"/>
<ellipse cx="112.5" cy="3" rx="2.5" ry="2.5" fill="#FF2041"/>
<ellipse cx="122.5" cy="3" rx="2.5" ry="2.5" fill="#FF2041"/>
<ellipse cx="132.5" cy="3" rx="2.5" ry="2.5" fill="#FF2041"/>
<ellipse cx="142.5" cy="3" rx="2.5" ry="2.5" fill="#FF2041"/>
<ellipse cx="152.5" cy="3" rx="2.5" ry="2.5" fill="#FF2041"/>
<ellipse cx="162.5" cy="3" rx="2.5" ry="2.5" fill="#FF2041"/>
<ellipse cx="172.5" cy="3" rx="2.5" ry="2.5" fill="#FF2041"/>
<ellipse cx="182.5" cy="3" rx="2.5" ry="2.5" fill="#FF2041"/>
<ellipse cx="192.5" cy="3" rx="2.5" ry="2.5" fill="#FF2041"/>
<ellipse cx="202.5" cy="3" rx="2.5" ry="2.5" fill="#FF2041"/>
<ellipse cx="212.5" cy="3" rx="2.5" ry="2.5" fill="#FF2041"/>
</g>
</svg>
