<svg width="50" height="50" viewBox="0 0 50 50" fill="none" xmlns="http://www.w3.org/2000/svg">
<circle cx="25" cy="25" r="25" fill="#002C4F"/>
<g clip-path="url(#clip0_121_8053)">
<path d="M17.2977 29.283C19.8622 32.3485 22.9492 34.7621 26.4726 36.47C27.8141 37.1057 29.6081 37.8599 31.6069 37.9892C31.7308 37.9946 31.8493 38 31.9732 38C33.3147 38 34.3922 37.5367 35.2704 36.5831C35.2757 36.5777 35.2865 36.5669 35.2919 36.5562C35.6044 36.179 35.96 35.8396 36.3317 35.4787C36.5849 35.2362 36.8435 34.983 37.0913 34.7244C38.2389 33.5284 38.2389 32.0091 37.0806 30.8508L33.8427 27.6129C33.2932 27.0419 32.6359 26.7402 31.9463 26.7402C31.2567 26.7402 30.594 27.0419 30.0283 27.6075L28.0996 29.5363C27.9218 29.4339 27.7387 29.3423 27.5663 29.2561C27.3508 29.1484 27.1514 29.046 26.9736 28.9329C25.2173 27.8177 23.6226 26.363 22.098 24.4936C21.3276 23.5184 20.8104 22.6995 20.4494 21.8645C20.9558 21.4065 21.4299 20.9271 21.8879 20.4584C22.0495 20.2913 22.2165 20.1243 22.3835 19.9573C22.9653 19.3755 23.2778 18.702 23.2778 18.0178C23.2778 17.3336 22.9707 16.6602 22.3835 16.0783L20.778 14.4729C20.5895 14.2843 20.4117 14.1011 20.2285 13.9126C19.8729 13.5462 19.5012 13.1691 19.1348 12.8297C18.5799 12.2855 17.928 12 17.2385 12C16.5542 12 15.897 12.2855 15.3205 12.8351L13.3056 14.85C12.5729 15.5827 12.1581 16.4716 12.0719 17.5006C11.9695 18.7882 12.2065 20.1567 12.8207 21.8106C13.7635 24.3697 15.1858 26.7455 17.2977 29.283ZM13.3864 17.6138C13.451 16.8972 13.7258 16.2992 14.243 15.782L16.2472 13.7779C16.5596 13.4762 16.9044 13.3199 17.2385 13.3199C17.5671 13.3199 17.9011 13.4762 18.2082 13.7886C18.5692 14.1227 18.9086 14.4729 19.2749 14.8446C19.4581 15.0332 19.6467 15.2217 19.8352 15.4157L21.4407 17.0211C21.7747 17.3552 21.9471 17.6946 21.9471 18.0286C21.9471 18.3626 21.7747 18.702 21.4407 19.0361C21.2737 19.2031 21.1067 19.3755 20.9397 19.5425C20.4386 20.0489 19.9699 20.5284 19.4527 20.9863L19.4258 21.0133C18.9786 21.4604 19.0486 21.886 19.1564 22.2093C19.1618 22.2254 19.1672 22.2362 19.1726 22.2524C19.5874 23.2491 20.1639 24.1973 21.0636 25.3286C22.6798 27.322 24.3823 28.8682 26.2571 30.0588C26.4888 30.2097 26.7366 30.3282 26.9682 30.4467C27.1837 30.5545 27.3831 30.6569 27.5609 30.77C27.5824 30.7808 27.5986 30.7915 27.6201 30.8023C27.7979 30.8939 27.9703 30.937 28.1427 30.937C28.5737 30.937 28.8539 30.6622 28.9455 30.5707L30.9604 28.5557C31.2728 28.2433 31.6123 28.0763 31.9463 28.0763C32.3557 28.0763 32.6898 28.3295 32.8999 28.5557L36.1485 31.799C36.795 32.4455 36.7896 33.1459 36.1324 33.8301C35.9061 34.0725 35.669 34.3042 35.4158 34.5466C35.0387 34.913 34.6454 35.2901 34.2898 35.7157C33.6703 36.3838 32.9322 36.6962 31.9786 36.6962C31.887 36.6962 31.79 36.6908 31.6985 36.6855C29.9314 36.5723 28.2882 35.8827 27.0544 35.2955C23.7034 33.6738 20.7619 31.3734 18.3213 28.4534C16.3118 26.0344 14.9595 23.7824 14.0652 21.3688C13.5103 19.8873 13.3002 18.6966 13.3864 17.6138Z" fill="white"/>
</g>
<defs>
<clipPath id="clip0_121_8053">
<rect width="26" height="26" fill="white" transform="translate(12 12)"/>
</clipPath>
</defs>
</svg>
