<svg width="111" height="353" viewBox="0 0 111 353" fill="none" xmlns="http://www.w3.org/2000/svg">
<path d="M108.445 2.55797C107.739 2.55797 107.168 1.9851 107.168 1.27864C107.168 0.572168 107.739 2.37069e-08 108.445 1.52646e-08C109.151 6.83064e-09 109.723 0.572168 109.723 1.27864C109.723 1.9851 109.151 2.55797 108.445 2.55797Z" fill="#0072BB"/>
<path d="M108.445 20.4642C107.739 20.4642 107.168 19.8914 107.168 19.1849C107.168 18.4784 107.739 17.9063 108.445 17.9063C109.151 17.9063 109.723 18.4784 109.723 19.1849C109.723 19.8914 109.151 20.4642 108.445 20.4642Z" fill="#0072BB"/>
<path d="M108.445 38.3705C107.739 38.3705 107.168 37.7976 107.168 37.0911C107.168 36.3847 107.739 35.8125 108.445 35.8125C109.151 35.8125 109.723 36.3847 109.723 37.0911C109.723 37.7976 109.151 38.3705 108.445 38.3705Z" fill="#0072BB"/>
<path d="M108.445 54.9955C107.739 54.9955 107.168 54.4226 107.168 53.7161C107.168 53.0097 107.739 52.4375 108.445 52.4375C109.151 52.4375 109.723 53.0097 109.723 53.7161C109.723 54.4226 109.151 54.9955 108.445 54.9955Z" fill="#0072BB"/>
<path d="M108.445 72.9017C107.739 72.9017 107.168 72.3289 107.168 71.6224C107.168 70.9159 107.739 70.3438 108.445 70.3438C109.151 70.3438 109.723 70.9159 109.723 71.6224C109.723 72.3289 109.151 72.9017 108.445 72.9017Z" fill="#0072BB"/>
<path d="M108.445 72.9017C107.739 72.9017 107.168 72.3289 107.168 71.6224C107.168 70.9159 107.739 70.3438 108.445 70.3438C109.151 70.3438 109.723 70.9159 109.723 71.6224C109.723 72.3289 109.151 72.9017 108.445 72.9017Z" fill="#0072BB"/>
<path d="M108.445 90.808C107.739 90.808 107.168 90.2351 107.168 89.5286C107.168 88.8222 107.739 88.25 108.445 88.25C109.151 88.25 109.723 88.8222 109.723 89.5286C109.723 90.2351 109.151 90.808 108.445 90.808Z" fill="#0072BB"/>
<path d="M108.445 107.435C107.739 107.435 107.168 106.862 107.168 106.156C107.168 105.449 107.739 104.877 108.445 104.877C109.151 104.877 109.723 105.449 109.723 106.156C109.723 106.862 109.151 107.435 108.445 107.435Z" fill="#0072BB"/>
<path d="M108.445 125.341C107.739 125.341 107.168 124.768 107.168 124.062C107.168 123.355 107.739 122.783 108.445 122.783C109.151 122.783 109.723 123.355 109.723 124.062C109.723 124.768 109.151 125.341 108.445 125.341Z" fill="#0072BB"/>
<path d="M108.445 143.245C107.739 143.245 107.168 142.673 107.168 141.966C107.168 141.26 107.739 140.688 108.445 140.688C109.151 140.688 109.723 141.26 109.723 141.966C109.723 142.673 109.151 143.245 108.445 143.245Z" fill="#0072BB"/>
<path d="M108.445 143.245C107.739 143.245 107.168 142.673 107.168 141.966C107.168 141.26 107.739 140.688 108.445 140.688C109.151 140.688 109.723 141.26 109.723 141.966C109.723 142.673 109.151 143.245 108.445 143.245Z" fill="#0072BB"/>
<path d="M108.445 159.872C107.739 159.872 107.168 159.3 107.168 158.593C107.168 157.887 107.739 157.314 108.445 157.314C109.151 157.314 109.723 157.887 109.723 158.593C109.723 159.3 109.151 159.872 108.445 159.872Z" fill="#0072BB"/>
<path d="M108.445 177.779C107.739 177.779 107.168 177.206 107.168 176.499C107.168 175.793 107.739 175.221 108.445 175.221C109.151 175.221 109.723 175.793 109.723 176.499C109.723 177.206 109.151 177.779 108.445 177.779Z" fill="#0072BB"/>
<path d="M108.445 195.685C107.739 195.685 107.168 195.112 107.168 194.406C107.168 193.699 107.739 193.127 108.445 193.127C109.151 193.127 109.723 193.699 109.723 194.406C109.723 195.112 109.151 195.685 108.445 195.685Z" fill="#0072BB"/>
<path d="M108.445 212.312C107.739 212.312 107.168 211.739 107.168 211.033C107.168 210.326 107.739 209.754 108.445 209.754C109.151 209.754 109.723 210.326 109.723 211.033C109.723 211.739 109.151 212.312 108.445 212.312Z" fill="#0072BB"/>
<path d="M108.445 212.312C107.739 212.312 107.168 211.739 107.168 211.033C107.168 210.326 107.739 209.754 108.445 209.754C109.151 209.754 109.723 210.326 109.723 211.033C109.723 211.739 109.151 212.312 108.445 212.312Z" fill="#0072BB"/>
<path d="M108.445 230.218C107.739 230.218 107.168 229.645 107.168 228.939C107.168 228.232 107.739 227.66 108.445 227.66C109.151 227.66 109.723 228.232 109.723 228.939C109.723 229.645 109.151 230.218 108.445 230.218Z" fill="#0072BB"/>
<path d="M108.445 248.122C107.739 248.122 107.168 247.55 107.168 246.843C107.168 246.137 107.739 245.564 108.445 245.564C109.151 245.564 109.723 246.137 109.723 246.843C109.723 247.55 109.151 248.122 108.445 248.122Z" fill="#0072BB"/>
<path d="M108.445 264.749C107.739 264.749 107.168 264.177 107.168 263.47C107.168 262.764 107.739 262.191 108.445 262.191C109.151 262.191 109.723 262.764 109.723 263.47C109.723 264.177 109.151 264.749 108.445 264.749Z" fill="#0072BB"/>
<path d="M108.445 282.656C107.739 282.656 107.168 282.083 107.168 281.376C107.168 280.67 107.739 280.098 108.445 280.098C109.151 280.098 109.723 280.67 109.723 281.376C109.723 282.083 109.151 282.656 108.445 282.656Z" fill="#0072BB"/>
<path d="M108.445 264.749C107.739 264.749 107.168 264.177 107.168 263.47C107.168 262.764 107.739 262.191 108.445 262.191C109.151 262.191 109.723 262.764 109.723 263.47C109.723 264.177 109.151 264.749 108.445 264.749Z" fill="#0072BB"/>
<path d="M108.445 282.656C107.739 282.656 107.168 282.083 107.168 281.376C107.168 280.67 107.739 280.098 108.445 280.098C109.151 280.098 109.723 280.67 109.723 281.376C109.723 282.083 109.151 282.656 108.445 282.656Z" fill="#0072BB"/>
<path d="M108.445 282.656C107.739 282.656 107.168 282.083 107.168 281.376C107.168 280.67 107.739 280.098 108.445 280.098C109.151 280.098 109.723 280.67 109.723 281.376C109.723 282.083 109.151 282.656 108.445 282.656Z" fill="#0072BB"/>
<path d="M108.445 300.562C107.739 300.562 107.168 299.989 107.168 299.283C107.168 298.576 107.739 298.004 108.445 298.004C109.151 298.004 109.723 298.576 109.723 299.283C109.723 299.989 109.151 300.562 108.445 300.562Z" fill="#0072BB"/>
<path d="M108.445 317.189C107.739 317.189 107.168 316.616 107.168 315.909C107.168 315.203 107.739 314.631 108.445 314.631C109.151 314.631 109.723 315.203 109.723 315.909C109.723 316.616 109.151 317.189 108.445 317.189Z" fill="#0072BB"/>
<path d="M108.445 335.095C107.739 335.095 107.168 334.522 107.168 333.816C107.168 333.109 107.739 332.537 108.445 332.537C109.151 332.537 109.723 333.109 109.723 333.816C109.723 334.522 109.151 335.095 108.445 335.095Z" fill="#0072BB"/>
<mask id="mask0_121_19464" style="mask-type:luminance" maskUnits="userSpaceOnUse" x="107" y="349" width="4" height="4">
<path d="M110.672 349.164L110.672 352.672L107.168 352.672L107.168 349.164L110.672 349.164Z" fill="white"/>
</mask>
<g mask="url(#mask0_121_19464)">
<path d="M108.92 352.672C107.952 352.672 107.168 351.886 107.168 350.918C107.168 349.949 107.952 349.164 108.92 349.164C109.888 349.164 110.672 349.949 110.672 350.918C110.672 351.886 109.888 352.672 108.92 352.672Z" fill="#0072BB"/>
</g>
<path d="M90.5587 2.55797C89.8523 2.55797 89.2808 1.9851 89.2808 1.27864C89.2808 0.572168 89.8523 2.37069e-08 90.5587 1.52646e-08C91.2644 6.83064e-09 91.8359 0.572168 91.8359 1.27864C91.8359 1.9851 91.2644 2.55797 90.5587 2.55797Z" fill="#0072BB"/>
<path d="M90.5626 20.4642C89.8562 20.4642 89.2847 19.8914 89.2847 19.1849C89.2847 18.4784 89.8562 17.9063 90.5626 17.9063C91.2683 17.9063 91.8398 18.4784 91.8398 19.1849C91.8398 19.8914 91.2683 20.4642 90.5626 20.4642Z" fill="#0072BB"/>
<path d="M90.5626 38.3705C89.8562 38.3705 89.2847 37.7976 89.2847 37.0911C89.2847 36.3847 89.8562 35.8125 90.5626 35.8125C91.2683 35.8125 91.8398 36.3847 91.8398 37.0911C91.8398 37.7976 91.2683 38.3705 90.5626 38.3705Z" fill="#0072BB"/>
<path d="M90.5626 54.9955C89.8562 54.9955 89.2847 54.4226 89.2847 53.7161C89.2847 53.0097 89.8562 52.4375 90.5626 52.4375C91.2683 52.4375 91.8398 53.0097 91.8398 53.7161C91.8398 54.4226 91.2683 54.9955 90.5626 54.9955Z" fill="#0072BB"/>
<path d="M90.5626 72.9017C89.8562 72.9017 89.2847 72.3289 89.2847 71.6224C89.2847 70.9159 89.8562 70.3438 90.5626 70.3438C91.2683 70.3438 91.8398 70.9159 91.8398 71.6224C91.8398 72.3289 91.2683 72.9017 90.5626 72.9017Z" fill="#0072BB"/>
<path d="M90.5626 72.9017C89.8562 72.9017 89.2847 72.3289 89.2847 71.6224C89.2847 70.9159 89.8562 70.3438 90.5626 70.3438C91.2683 70.3438 91.8398 70.9159 91.8398 71.6224C91.8398 72.3289 91.2683 72.9017 90.5626 72.9017Z" fill="#0072BB"/>
<path d="M90.5587 90.808C89.8523 90.808 89.2808 90.2351 89.2808 89.5286C89.2808 88.8222 89.8523 88.25 90.5587 88.25C91.2644 88.25 91.8359 88.8222 91.8359 89.5286C91.8359 90.2351 91.2644 90.808 90.5587 90.808Z" fill="#0072BB"/>
<path d="M90.5587 107.435C89.8523 107.435 89.2808 106.862 89.2808 106.156C89.2808 105.449 89.8523 104.877 90.5587 104.877C91.2644 104.877 91.8359 105.449 91.8359 106.156C91.8359 106.862 91.2644 107.435 90.5587 107.435Z" fill="#0072BB"/>
<path d="M90.5587 125.341C89.8523 125.341 89.2808 124.768 89.2808 124.062C89.2808 123.355 89.8523 122.783 90.5587 122.783C91.2644 122.783 91.8359 123.355 91.8359 124.062C91.8359 124.768 91.2644 125.341 90.5587 125.341Z" fill="#0072BB"/>
<path d="M90.5587 143.245C89.8523 143.245 89.2808 142.673 89.2808 141.966C89.2808 141.26 89.8523 140.688 90.5587 140.688C91.2644 140.688 91.8359 141.26 91.8359 141.966C91.8359 142.673 91.2644 143.245 90.5587 143.245Z" fill="#0072BB"/>
<path d="M90.5587 143.245C89.8523 143.245 89.2808 142.673 89.2808 141.966C89.2808 141.26 89.8523 140.688 90.5587 140.688C91.2644 140.688 91.8359 141.26 91.8359 141.966C91.8359 142.673 91.2644 143.245 90.5587 143.245Z" fill="#0072BB"/>
<path d="M90.5587 159.872C89.8523 159.872 89.2808 159.3 89.2808 158.593C89.2808 157.887 89.8523 157.314 90.5587 157.314C91.2644 157.314 91.8359 157.887 91.8359 158.593C91.8359 159.3 91.2644 159.872 90.5587 159.872Z" fill="#0072BB"/>
<path d="M90.5626 177.779C89.8562 177.779 89.2847 177.206 89.2847 176.499C89.2847 175.793 89.8562 175.221 90.5626 175.221C91.2683 175.221 91.8398 175.793 91.8398 176.499C91.8398 177.206 91.2683 177.779 90.5626 177.779Z" fill="#0072BB"/>
<path d="M90.5626 195.685C89.8562 195.685 89.2847 195.112 89.2847 194.406C89.2847 193.699 89.8562 193.127 90.5626 193.127C91.2683 193.127 91.8398 193.699 91.8398 194.406C91.8398 195.112 91.2683 195.685 90.5626 195.685Z" fill="#0072BB"/>
<path d="M90.5626 212.312C89.8562 212.312 89.2847 211.739 89.2847 211.033C89.2847 210.326 89.8562 209.754 90.5626 209.754C91.2683 209.754 91.8398 210.326 91.8398 211.033C91.8398 211.739 91.2683 212.312 90.5626 212.312Z" fill="#0072BB"/>
<path d="M90.5626 212.312C89.8562 212.312 89.2847 211.739 89.2847 211.033C89.2847 210.326 89.8562 209.754 90.5626 209.754C91.2683 209.754 91.8398 210.326 91.8398 211.033C91.8398 211.739 91.2683 212.312 90.5626 212.312Z" fill="#0072BB"/>
<path d="M90.5626 230.218C89.8562 230.218 89.2847 229.645 89.2847 228.939C89.2847 228.232 89.8562 227.66 90.5626 227.66C91.2683 227.66 91.8398 228.232 91.8398 228.939C91.8398 229.645 91.2683 230.218 90.5626 230.218Z" fill="#0072BB"/>
<path d="M90.5587 248.122C89.8523 248.122 89.2808 247.55 89.2808 246.843C89.2808 246.137 89.8523 245.564 90.5587 245.564C91.2644 245.564 91.8359 246.137 91.8359 246.843C91.8359 247.55 91.2644 248.122 90.5587 248.122Z" fill="#0072BB"/>
<path d="M90.5587 264.749C89.8523 264.749 89.2808 264.177 89.2808 263.47C89.2808 262.764 89.8523 262.191 90.5587 262.191C91.2644 262.191 91.8359 262.764 91.8359 263.47C91.8359 264.177 91.2644 264.749 90.5587 264.749Z" fill="#0072BB"/>
<path d="M90.5587 282.656C89.8523 282.656 89.2808 282.083 89.2808 281.376C89.2808 280.67 89.8523 280.098 90.5587 280.098C91.2644 280.098 91.8359 280.67 91.8359 281.376C91.8359 282.083 91.2644 282.656 90.5587 282.656Z" fill="#0072BB"/>
<path d="M90.5587 264.749C89.8523 264.749 89.2808 264.177 89.2808 263.47C89.2808 262.764 89.8523 262.191 90.5587 262.191C91.2644 262.191 91.8359 262.764 91.8359 263.47C91.8359 264.177 91.2644 264.749 90.5587 264.749Z" fill="#0072BB"/>
<path d="M90.5587 282.656C89.8523 282.656 89.2808 282.083 89.2808 281.376C89.2808 280.67 89.8523 280.098 90.5587 280.098C91.2644 280.098 91.8359 280.67 91.8359 281.376C91.8359 282.083 91.2644 282.656 90.5587 282.656Z" fill="#0072BB"/>
<path d="M90.5587 282.656C89.8523 282.656 89.2808 282.083 89.2808 281.376C89.2808 280.67 89.8523 280.098 90.5587 280.098C91.2644 280.098 91.8359 280.67 91.8359 281.376C91.8359 282.083 91.2644 282.656 90.5587 282.656Z" fill="#0072BB"/>
<path d="M90.5587 300.562C89.8523 300.562 89.2808 299.989 89.2808 299.283C89.2808 298.576 89.8523 298.004 90.5587 298.004C91.2644 298.004 91.8359 298.576 91.8359 299.283C91.8359 299.989 91.2644 300.562 90.5587 300.562Z" fill="#0072BB"/>
<path d="M90.5587 317.189C89.8523 317.189 89.2808 316.616 89.2808 315.909C89.2808 315.203 89.8523 314.631 90.5587 314.631C91.2644 314.631 91.8359 315.203 91.8359 315.909C91.8359 316.616 91.2644 317.189 90.5587 317.189Z" fill="#0072BB"/>
<path d="M90.5626 335.095C89.8562 335.095 89.2847 334.522 89.2847 333.816C89.2847 333.109 89.8562 332.537 90.5626 332.537C91.2683 332.537 91.8398 333.109 91.8398 333.816C91.8398 334.522 91.2683 335.095 90.5626 335.095Z" fill="#0072BB"/>
<mask id="mask1_121_19464" style="mask-type:luminance" maskUnits="userSpaceOnUse" x="89" y="349" width="4" height="4">
<path d="M92.7852 349.164L92.7852 352.672L89.2811 352.672L89.2811 349.164L92.7852 349.164Z" fill="white"/>
</mask>
<g mask="url(#mask1_121_19464)">
<path d="M91.0336 352.672C90.0649 352.672 89.2811 351.886 89.2811 350.918C89.2811 349.949 90.0649 349.164 91.0336 349.164C92.0014 349.164 92.7852 349.949 92.7852 350.918C92.7852 351.886 92.0014 352.672 91.0336 352.672Z" fill="#0072BB"/>
</g>
<path d="M73.9533 2.55797C73.2469 2.55797 72.6753 1.9851 72.6753 1.27864C72.6753 0.572168 73.2469 2.37069e-08 73.9533 1.52646e-08C74.6589 6.83064e-09 75.2305 0.572168 75.2305 1.27864C75.2305 1.9851 74.6589 2.55797 73.9533 2.55797Z" fill="#0072BB"/>
<path d="M73.9533 20.4642C73.2469 20.4642 72.6753 19.8914 72.6753 19.1849C72.6753 18.4784 73.2469 17.9063 73.9533 17.9063C74.6589 17.9063 75.2305 18.4784 75.2305 19.1849C75.2305 19.8914 74.6589 20.4642 73.9533 20.4642Z" fill="#0072BB"/>
<path d="M73.9533 38.3705C73.2469 38.3705 72.6753 37.7976 72.6753 37.0911C72.6753 36.3847 73.2469 35.8125 73.9533 35.8125C74.6589 35.8125 75.2305 36.3847 75.2305 37.0911C75.2305 37.7976 74.6589 38.3705 73.9533 38.3705Z" fill="#0072BB"/>
<path d="M73.9533 54.9955C73.2469 54.9955 72.6753 54.4226 72.6753 53.7161C72.6753 53.0097 73.2469 52.4375 73.9533 52.4375C74.6589 52.4375 75.2305 53.0097 75.2305 53.7161C75.2305 54.4226 74.6589 54.9955 73.9533 54.9955Z" fill="#0072BB"/>
<path d="M73.9533 72.9017C73.2469 72.9017 72.6753 72.3289 72.6753 71.6224C72.6753 70.9159 73.2469 70.3438 73.9533 70.3438C74.6589 70.3438 75.2305 70.9159 75.2305 71.6224C75.2305 72.3289 74.6589 72.9017 73.9533 72.9017Z" fill="#0072BB"/>
<path d="M73.9533 72.9017C73.2469 72.9017 72.6753 72.3289 72.6753 71.6224C72.6753 70.9159 73.2469 70.3438 73.9533 70.3438C74.6589 70.3438 75.2305 70.9159 75.2305 71.6224C75.2305 72.3289 74.6589 72.9017 73.9533 72.9017Z" fill="#0072BB"/>
<path d="M73.9533 90.808C73.2469 90.808 72.6753 90.2351 72.6753 89.5286C72.6753 88.8222 73.2469 88.25 73.9533 88.25C74.6589 88.25 75.2305 88.8222 75.2305 89.5286C75.2305 90.2351 74.6589 90.808 73.9533 90.808Z" fill="#0072BB"/>
<path d="M73.9533 107.435C73.2469 107.435 72.6753 106.862 72.6753 106.156C72.6753 105.449 73.2469 104.877 73.9533 104.877C74.6589 104.877 75.2305 105.449 75.2305 106.156C75.2305 106.862 74.6589 107.435 73.9533 107.435Z" fill="#0072BB"/>
<path d="M73.9533 125.341C73.2469 125.341 72.6753 124.768 72.6753 124.062C72.6753 123.355 73.2469 122.783 73.9533 122.783C74.6589 122.783 75.2305 123.355 75.2305 124.062C75.2305 124.768 74.6589 125.341 73.9533 125.341Z" fill="#0072BB"/>
<path d="M73.9533 143.245C73.2469 143.245 72.6753 142.673 72.6753 141.966C72.6753 141.26 73.2469 140.688 73.9533 140.688C74.6589 140.688 75.2305 141.26 75.2305 141.966C75.2305 142.673 74.6589 143.245 73.9533 143.245Z" fill="#0072BB"/>
<path d="M73.9533 143.245C73.2469 143.245 72.6753 142.673 72.6753 141.966C72.6753 141.26 73.2469 140.688 73.9533 140.688C74.6589 140.688 75.2305 141.26 75.2305 141.966C75.2305 142.673 74.6589 143.245 73.9533 143.245Z" fill="#0072BB"/>
<path d="M73.9533 159.872C73.2469 159.872 72.6753 159.3 72.6753 158.593C72.6753 157.887 73.2469 157.314 73.9533 157.314C74.6589 157.314 75.2305 157.887 75.2305 158.593C75.2305 159.3 74.6589 159.872 73.9533 159.872Z" fill="#0072BB"/>
<path d="M73.9533 177.779C73.2469 177.779 72.6753 177.206 72.6753 176.499C72.6753 175.793 73.2469 175.221 73.9533 175.221C74.6589 175.221 75.2305 175.793 75.2305 176.499C75.2305 177.206 74.6589 177.779 73.9533 177.779Z" fill="#0072BB"/>
<path d="M73.9533 195.685C73.2469 195.685 72.6753 195.112 72.6753 194.406C72.6753 193.699 73.2469 193.127 73.9533 193.127C74.6589 193.127 75.2305 193.699 75.2305 194.406C75.2305 195.112 74.6589 195.685 73.9533 195.685Z" fill="#0072BB"/>
<path d="M73.9533 212.312C73.2469 212.312 72.6753 211.739 72.6753 211.033C72.6753 210.326 73.2469 209.754 73.9533 209.754C74.6589 209.754 75.2305 210.326 75.2305 211.033C75.2305 211.739 74.6589 212.312 73.9533 212.312Z" fill="#0072BB"/>
<path d="M73.9533 212.312C73.2469 212.312 72.6753 211.739 72.6753 211.033C72.6753 210.326 73.2469 209.754 73.9533 209.754C74.6589 209.754 75.2305 210.326 75.2305 211.033C75.2305 211.739 74.6589 212.312 73.9533 212.312Z" fill="#0072BB"/>
<path d="M73.9533 230.218C73.2469 230.218 72.6753 229.645 72.6753 228.939C72.6753 228.232 73.2469 227.66 73.9533 227.66C74.6589 227.66 75.2305 228.232 75.2305 228.939C75.2305 229.645 74.6589 230.218 73.9533 230.218Z" fill="#0072BB"/>
<path d="M73.9533 248.122C73.2469 248.122 72.6753 247.55 72.6753 246.843C72.6753 246.137 73.2469 245.564 73.9533 245.564C74.6589 245.564 75.2305 246.137 75.2305 246.843C75.2305 247.55 74.6589 248.122 73.9533 248.122Z" fill="#0072BB"/>
<path d="M73.9533 264.749C73.2469 264.749 72.6753 264.177 72.6753 263.47C72.6753 262.764 73.2469 262.191 73.9533 262.191C74.6589 262.191 75.2305 262.764 75.2305 263.47C75.2305 264.177 74.6589 264.749 73.9533 264.749Z" fill="#0072BB"/>
<path d="M73.9533 282.656C73.2469 282.656 72.6753 282.083 72.6753 281.376C72.6753 280.67 73.2469 280.098 73.9533 280.098C74.6589 280.098 75.2305 280.67 75.2305 281.376C75.2305 282.083 74.6589 282.656 73.9533 282.656Z" fill="#0072BB"/>
<path d="M73.9533 264.749C73.2469 264.749 72.6753 264.177 72.6753 263.47C72.6753 262.764 73.2469 262.191 73.9533 262.191C74.6589 262.191 75.2305 262.764 75.2305 263.47C75.2305 264.177 74.6589 264.749 73.9533 264.749Z" fill="#0072BB"/>
<path d="M73.9533 282.656C73.2469 282.656 72.6753 282.083 72.6753 281.376C72.6753 280.67 73.2469 280.098 73.9533 280.098C74.6589 280.098 75.2305 280.67 75.2305 281.376C75.2305 282.083 74.6589 282.656 73.9533 282.656Z" fill="#0072BB"/>
<path d="M73.9533 282.656C73.2469 282.656 72.6753 282.083 72.6753 281.376C72.6753 280.67 73.2469 280.098 73.9533 280.098C74.6589 280.098 75.2305 280.67 75.2305 281.376C75.2305 282.083 74.6589 282.656 73.9533 282.656Z" fill="#0072BB"/>
<path d="M73.9533 300.562C73.2469 300.562 72.6753 299.989 72.6753 299.283C72.6753 298.576 73.2469 298.004 73.9533 298.004C74.6589 298.004 75.2305 298.576 75.2305 299.283C75.2305 299.989 74.6589 300.562 73.9533 300.562Z" fill="#0072BB"/>
<path d="M73.9533 317.189C73.2469 317.189 72.6753 316.616 72.6753 315.909C72.6753 315.203 73.2469 314.631 73.9533 314.631C74.6589 314.631 75.2305 315.203 75.2305 315.909C75.2305 316.616 74.6589 317.189 73.9533 317.189Z" fill="#0072BB"/>
<path d="M73.9533 335.095C73.2469 335.095 72.6753 334.522 72.6753 333.816C72.6753 333.109 73.2469 332.537 73.9533 332.537C74.6589 332.537 75.2305 333.109 75.2305 333.816C75.2305 334.522 74.6589 335.095 73.9533 335.095Z" fill="#0072BB"/>
<mask id="mask2_121_19464" style="mask-type:luminance" maskUnits="userSpaceOnUse" x="71" y="349" width="4" height="4">
<path d="M74.9023 349.164L74.9023 352.672L71.3983 352.672L71.3983 349.164L74.9023 349.164Z" fill="white"/>
</mask>
<g mask="url(#mask2_121_19464)">
<path d="M73.1508 352.672C72.1821 352.672 71.3983 351.886 71.3983 350.918C71.3983 349.949 72.1821 349.164 73.1508 349.164C74.1186 349.164 74.9023 349.949 74.9023 350.918C74.9023 351.886 74.1186 352.672 73.1508 352.672Z" fill="#0072BB"/>
</g>
<path d="M56.0665 2.55797C55.3601 2.55797 54.7886 1.9851 54.7886 1.27864C54.7886 0.572168 55.3601 2.37069e-08 56.0665 1.52646e-08C56.7722 6.83064e-09 57.3438 0.572168 57.3438 1.27864C57.3438 1.9851 56.7722 2.55797 56.0665 2.55797Z" fill="#0072BB"/>
<path d="M56.0665 20.4642C55.3601 20.4642 54.7886 19.8914 54.7886 19.1849C54.7886 18.4784 55.3601 17.9063 56.0665 17.9063C56.7722 17.9063 57.3438 18.4784 57.3438 19.1849C57.3438 19.8914 56.7722 20.4642 56.0665 20.4642Z" fill="#0072BB"/>
<path d="M56.0665 38.3705C55.3601 38.3705 54.7886 37.7976 54.7886 37.0911C54.7886 36.3847 55.3601 35.8125 56.0665 35.8125C56.7722 35.8125 57.3438 36.3847 57.3438 37.0911C57.3438 37.7976 56.7722 38.3705 56.0665 38.3705Z" fill="#0072BB"/>
<path d="M56.0665 54.9955C55.3601 54.9955 54.7886 54.4226 54.7886 53.7161C54.7886 53.0097 55.3601 52.4375 56.0665 52.4375C56.7722 52.4375 57.3438 53.0097 57.3438 53.7161C57.3438 54.4226 56.7722 54.9955 56.0665 54.9955Z" fill="#0072BB"/>
<path d="M56.0665 72.9017C55.3601 72.9017 54.7886 72.3289 54.7886 71.6224C54.7886 70.9159 55.3601 70.3438 56.0665 70.3438C56.7722 70.3438 57.3438 70.9159 57.3438 71.6224C57.3438 72.3289 56.7722 72.9017 56.0665 72.9017Z" fill="#0072BB"/>
<path d="M56.0665 72.9017C55.3601 72.9017 54.7886 72.3289 54.7886 71.6224C54.7886 70.9159 55.3601 70.3438 56.0665 70.3438C56.7722 70.3438 57.3438 70.9159 57.3438 71.6224C57.3438 72.3289 56.7722 72.9017 56.0665 72.9017Z" fill="#0072BB"/>
<path d="M56.0665 90.808C55.3601 90.808 54.7886 90.2351 54.7886 89.5286C54.7886 88.8222 55.3601 88.25 56.0665 88.25C56.7722 88.25 57.3438 88.8222 57.3438 89.5286C57.3438 90.2351 56.7722 90.808 56.0665 90.808Z" fill="#0072BB"/>
<path d="M56.0665 107.435C55.3601 107.435 54.7886 106.862 54.7886 106.156C54.7886 105.449 55.3601 104.877 56.0665 104.877C56.7722 104.877 57.3438 105.449 57.3438 106.156C57.3438 106.862 56.7722 107.435 56.0665 107.435Z" fill="#0072BB"/>
<path d="M56.0665 125.341C55.3601 125.341 54.7886 124.768 54.7886 124.062C54.7886 123.355 55.3601 122.783 56.0665 122.783C56.7722 122.783 57.3438 123.355 57.3438 124.062C57.3438 124.768 56.7722 125.341 56.0665 125.341Z" fill="#0072BB"/>
<path d="M56.0665 143.245C55.3601 143.245 54.7886 142.673 54.7886 141.966C54.7886 141.26 55.3601 140.688 56.0665 140.688C56.7722 140.688 57.3438 141.26 57.3438 141.966C57.3438 142.673 56.7722 143.245 56.0665 143.245Z" fill="#0072BB"/>
<path d="M56.0665 143.245C55.3601 143.245 54.7886 142.673 54.7886 141.966C54.7886 141.26 55.3601 140.688 56.0665 140.688C56.7722 140.688 57.3438 141.26 57.3438 141.966C57.3438 142.673 56.7722 143.245 56.0665 143.245Z" fill="#0072BB"/>
<path d="M56.0665 159.872C55.3601 159.872 54.7886 159.3 54.7886 158.593C54.7886 157.887 55.3601 157.314 56.0665 157.314C56.7722 157.314 57.3438 157.887 57.3438 158.593C57.3438 159.3 56.7722 159.872 56.0665 159.872Z" fill="#0072BB"/>
<path d="M56.0665 177.779C55.3601 177.779 54.7886 177.206 54.7886 176.499C54.7886 175.793 55.3601 175.221 56.0665 175.221C56.7722 175.221 57.3438 175.793 57.3438 176.499C57.3438 177.206 56.7722 177.779 56.0665 177.779Z" fill="#0072BB"/>
<path d="M56.0665 195.685C55.3601 195.685 54.7886 195.112 54.7886 194.406C54.7886 193.699 55.3601 193.127 56.0665 193.127C56.7722 193.127 57.3438 193.699 57.3438 194.406C57.3438 195.112 56.7722 195.685 56.0665 195.685Z" fill="#0072BB"/>
<path d="M56.0665 212.312C55.3601 212.312 54.7886 211.739 54.7886 211.033C54.7886 210.326 55.3601 209.754 56.0665 209.754C56.7722 209.754 57.3438 210.326 57.3438 211.033C57.3438 211.739 56.7722 212.312 56.0665 212.312Z" fill="#0072BB"/>
<path d="M56.0665 212.312C55.3601 212.312 54.7886 211.739 54.7886 211.033C54.7886 210.326 55.3601 209.754 56.0665 209.754C56.7722 209.754 57.3438 210.326 57.3438 211.033C57.3438 211.739 56.7722 212.312 56.0665 212.312Z" fill="#0072BB"/>
<path d="M56.0665 230.218C55.3601 230.218 54.7886 229.645 54.7886 228.939C54.7886 228.232 55.3601 227.66 56.0665 227.66C56.7722 227.66 57.3438 228.232 57.3438 228.939C57.3438 229.645 56.7722 230.218 56.0665 230.218Z" fill="#0072BB"/>
<path d="M56.0665 248.122C55.3601 248.122 54.7886 247.55 54.7886 246.843C54.7886 246.137 55.3601 245.564 56.0665 245.564C56.7722 245.564 57.3438 246.137 57.3438 246.843C57.3438 247.55 56.7722 248.122 56.0665 248.122Z" fill="#0072BB"/>
<path d="M56.0665 264.749C55.3601 264.749 54.7886 264.177 54.7886 263.47C54.7886 262.764 55.3601 262.191 56.0665 262.191C56.7722 262.191 57.3438 262.764 57.3438 263.47C57.3438 264.177 56.7722 264.749 56.0665 264.749Z" fill="#0072BB"/>
<path d="M56.0665 282.656C55.3601 282.656 54.7886 282.083 54.7886 281.376C54.7886 280.67 55.3601 280.098 56.0665 280.098C56.7722 280.098 57.3438 280.67 57.3438 281.376C57.3438 282.083 56.7722 282.656 56.0665 282.656Z" fill="#0072BB"/>
<path d="M56.0665 264.749C55.3601 264.749 54.7886 264.177 54.7886 263.47C54.7886 262.764 55.3601 262.191 56.0665 262.191C56.7722 262.191 57.3438 262.764 57.3438 263.47C57.3438 264.177 56.7722 264.749 56.0665 264.749Z" fill="#0072BB"/>
<path d="M56.0665 282.656C55.3601 282.656 54.7886 282.083 54.7886 281.376C54.7886 280.67 55.3601 280.098 56.0665 280.098C56.7722 280.098 57.3438 280.67 57.3438 281.376C57.3438 282.083 56.7722 282.656 56.0665 282.656Z" fill="#0072BB"/>
<path d="M56.0665 282.656C55.3601 282.656 54.7886 282.083 54.7886 281.376C54.7886 280.67 55.3601 280.098 56.0665 280.098C56.7722 280.098 57.3438 280.67 57.3438 281.376C57.3438 282.083 56.7722 282.656 56.0665 282.656Z" fill="#0072BB"/>
<path d="M56.0665 300.562C55.3601 300.562 54.7886 299.989 54.7886 299.283C54.7886 298.576 55.3601 298.004 56.0665 298.004C56.7722 298.004 57.3438 298.576 57.3438 299.283C57.3438 299.989 56.7722 300.562 56.0665 300.562Z" fill="#0072BB"/>
<path d="M56.0665 317.189C55.3601 317.189 54.7886 316.616 54.7886 315.909C54.7886 315.203 55.3601 314.631 56.0665 314.631C56.7722 314.631 57.3438 315.203 57.3438 315.909C57.3438 316.616 56.7722 317.189 56.0665 317.189Z" fill="#0072BB"/>
<path d="M56.0665 335.095C55.3601 335.095 54.7886 334.522 54.7886 333.816C54.7886 333.109 55.3601 332.537 56.0665 332.537C56.7722 332.537 57.3438 333.109 57.3438 333.816C57.3438 334.522 56.7722 335.095 56.0665 335.095Z" fill="#0072BB"/>
<mask id="mask3_121_19464" style="mask-type:luminance" maskUnits="userSpaceOnUse" x="54" y="349" width="5" height="4">
<path d="M58.293 349.164L58.293 352.672L54.7889 352.672L54.7889 349.164L58.293 349.164Z" fill="white"/>
</mask>
<g mask="url(#mask3_121_19464)">
<path d="M56.5414 352.672C55.5727 352.672 54.7889 351.886 54.7889 350.918C54.7889 349.949 55.5727 349.164 56.5414 349.164C57.5092 349.164 58.293 349.949 58.293 350.918C58.293 351.886 57.5092 352.672 56.5414 352.672Z" fill="#0072BB"/>
</g>
<path d="M38.1798 2.55797C37.4734 2.55797 36.9019 1.9851 36.9019 1.27864C36.9019 0.572168 37.4734 2.37069e-08 38.1798 1.52646e-08C38.8855 6.83064e-09 39.457 0.572168 39.457 1.27864C39.457 1.9851 38.8855 2.55797 38.1798 2.55797Z" fill="#0072BB"/>
<path d="M38.1798 20.4642C37.4734 20.4642 36.9019 19.8914 36.9019 19.1849C36.9019 18.4784 37.4734 17.9063 38.1798 17.9063C38.8855 17.9063 39.457 18.4784 39.457 19.1849C39.457 19.8914 38.8855 20.4642 38.1798 20.4642Z" fill="#0072BB"/>
<path d="M38.1798 38.3705C37.4734 38.3705 36.9019 37.7976 36.9019 37.0911C36.9019 36.3847 37.4734 35.8125 38.1798 35.8125C38.8855 35.8125 39.457 36.3847 39.457 37.0911C39.457 37.7976 38.8855 38.3705 38.1798 38.3705Z" fill="#0072BB"/>
<path d="M38.1798 54.9955C37.4734 54.9955 36.9019 54.4226 36.9019 53.7161C36.9019 53.0097 37.4734 52.4375 38.1798 52.4375C38.8855 52.4375 39.457 53.0097 39.457 53.7161C39.457 54.4226 38.8855 54.9955 38.1798 54.9955Z" fill="#0072BB"/>
<path d="M38.1798 72.9017C37.4734 72.9017 36.9019 72.3289 36.9019 71.6224C36.9019 70.9159 37.4734 70.3438 38.1798 70.3438C38.8855 70.3438 39.457 70.9159 39.457 71.6224C39.457 72.3289 38.8855 72.9017 38.1798 72.9017Z" fill="#0072BB"/>
<path d="M38.1798 72.9017C37.4734 72.9017 36.9019 72.3289 36.9019 71.6224C36.9019 70.9159 37.4734 70.3438 38.1798 70.3438C38.8855 70.3438 39.457 70.9159 39.457 71.6224C39.457 72.3289 38.8855 72.9017 38.1798 72.9017Z" fill="#0072BB"/>
<path d="M38.1798 90.808C37.4734 90.808 36.9019 90.2351 36.9019 89.5286C36.9019 88.8222 37.4734 88.25 38.1798 88.25C38.8855 88.25 39.457 88.8222 39.457 89.5286C39.457 90.2351 38.8855 90.808 38.1798 90.808Z" fill="#0072BB"/>
<path d="M38.1798 107.435C37.4734 107.435 36.9019 106.862 36.9019 106.156C36.9019 105.449 37.4734 104.877 38.1798 104.877C38.8855 104.877 39.457 105.449 39.457 106.156C39.457 106.862 38.8855 107.435 38.1798 107.435Z" fill="#0072BB"/>
<path d="M38.1798 125.341C37.4734 125.341 36.9019 124.768 36.9019 124.062C36.9019 123.355 37.4734 122.783 38.1798 122.783C38.8855 122.783 39.457 123.355 39.457 124.062C39.457 124.768 38.8855 125.341 38.1798 125.341Z" fill="#0072BB"/>
<path d="M38.1798 143.245C37.4734 143.245 36.9019 142.673 36.9019 141.966C36.9019 141.26 37.4734 140.688 38.1798 140.688C38.8855 140.688 39.457 141.26 39.457 141.966C39.457 142.673 38.8855 143.245 38.1798 143.245Z" fill="#0072BB"/>
<path d="M38.1798 143.245C37.4734 143.245 36.9019 142.673 36.9019 141.966C36.9019 141.26 37.4734 140.688 38.1798 140.688C38.8855 140.688 39.457 141.26 39.457 141.966C39.457 142.673 38.8855 143.245 38.1798 143.245Z" fill="#0072BB"/>
<path d="M38.1798 159.872C37.4734 159.872 36.9019 159.3 36.9019 158.593C36.9019 157.887 37.4734 157.314 38.1798 157.314C38.8855 157.314 39.457 157.887 39.457 158.593C39.457 159.3 38.8855 159.872 38.1798 159.872Z" fill="#0072BB"/>
<path d="M38.1798 177.779C37.4734 177.779 36.9019 177.206 36.9019 176.499C36.9019 175.793 37.4734 175.221 38.1798 175.221C38.8855 175.221 39.457 175.793 39.457 176.499C39.457 177.206 38.8855 177.779 38.1798 177.779Z" fill="#0072BB"/>
<path d="M38.1798 195.685C37.4734 195.685 36.9019 195.112 36.9019 194.406C36.9019 193.699 37.4734 193.127 38.1798 193.127C38.8855 193.127 39.457 193.699 39.457 194.406C39.457 195.112 38.8855 195.685 38.1798 195.685Z" fill="#0072BB"/>
<path d="M38.1798 212.312C37.4734 212.312 36.9019 211.739 36.9019 211.033C36.9019 210.326 37.4734 209.754 38.1798 209.754C38.8855 209.754 39.457 210.326 39.457 211.033C39.457 211.739 38.8855 212.312 38.1798 212.312Z" fill="#0072BB"/>
<path d="M38.1798 212.312C37.4734 212.312 36.9019 211.739 36.9019 211.033C36.9019 210.326 37.4734 209.754 38.1798 209.754C38.8855 209.754 39.457 210.326 39.457 211.033C39.457 211.739 38.8855 212.312 38.1798 212.312Z" fill="#0072BB"/>
<path d="M38.1798 230.218C37.4734 230.218 36.9019 229.645 36.9019 228.939C36.9019 228.232 37.4734 227.66 38.1798 227.66C38.8855 227.66 39.457 228.232 39.457 228.939C39.457 229.645 38.8855 230.218 38.1798 230.218Z" fill="#0072BB"/>
<path d="M38.1798 248.122C37.4734 248.122 36.9019 247.55 36.9019 246.843C36.9019 246.137 37.4734 245.564 38.1798 245.564C38.8855 245.564 39.457 246.137 39.457 246.843C39.457 247.55 38.8855 248.122 38.1798 248.122Z" fill="#0072BB"/>
<path d="M38.1798 264.749C37.4734 264.749 36.9019 264.177 36.9019 263.47C36.9019 262.764 37.4734 262.191 38.1798 262.191C38.8855 262.191 39.457 262.764 39.457 263.47C39.457 264.177 38.8855 264.749 38.1798 264.749Z" fill="#0072BB"/>
<path d="M38.1798 282.656C37.4734 282.656 36.9019 282.083 36.9019 281.376C36.9019 280.67 37.4734 280.098 38.1798 280.098C38.8855 280.098 39.457 280.67 39.457 281.376C39.457 282.083 38.8855 282.656 38.1798 282.656Z" fill="#0072BB"/>
<path d="M38.1798 264.749C37.4734 264.749 36.9019 264.177 36.9019 263.47C36.9019 262.764 37.4734 262.191 38.1798 262.191C38.8855 262.191 39.457 262.764 39.457 263.47C39.457 264.177 38.8855 264.749 38.1798 264.749Z" fill="#0072BB"/>
<path d="M38.1798 282.656C37.4734 282.656 36.9019 282.083 36.9019 281.376C36.9019 280.67 37.4734 280.098 38.1798 280.098C38.8855 280.098 39.457 280.67 39.457 281.376C39.457 282.083 38.8855 282.656 38.1798 282.656Z" fill="#0072BB"/>
<path d="M38.1798 282.656C37.4734 282.656 36.9019 282.083 36.9019 281.376C36.9019 280.67 37.4734 280.098 38.1798 280.098C38.8855 280.098 39.457 280.67 39.457 281.376C39.457 282.083 38.8855 282.656 38.1798 282.656Z" fill="#0072BB"/>
<path d="M38.1798 300.562C37.4734 300.562 36.9019 299.989 36.9019 299.283C36.9019 298.576 37.4734 298.004 38.1798 298.004C38.8855 298.004 39.457 298.576 39.457 299.283C39.457 299.989 38.8855 300.562 38.1798 300.562Z" fill="#0072BB"/>
<path d="M38.1798 317.189C37.4734 317.189 36.9019 316.616 36.9019 315.909C36.9019 315.203 37.4734 314.631 38.1798 314.631C38.8855 314.631 39.457 315.203 39.457 315.909C39.457 316.616 38.8855 317.189 38.1798 317.189Z" fill="#0072BB"/>
<path d="M38.1798 335.095C37.4734 335.095 36.9019 334.522 36.9019 333.816C36.9019 333.109 37.4734 332.537 38.1798 332.537C38.8855 332.537 39.457 333.109 39.457 333.816C39.457 334.522 38.8855 335.095 38.1798 335.095Z" fill="#0072BB"/>
<mask id="mask4_121_19464" style="mask-type:luminance" maskUnits="userSpaceOnUse" x="36" y="349" width="5" height="4">
<path d="M40.4023 349.164L40.4023 352.672L36.8983 352.672L36.8983 349.164L40.4023 349.164Z" fill="white"/>
</mask>
<g mask="url(#mask4_121_19464)">
<path d="M38.6508 352.672C37.6821 352.672 36.8983 351.886 36.8983 350.918C36.8983 349.949 37.6821 349.164 38.6508 349.164C39.6186 349.164 40.4023 349.949 40.4023 350.918C40.4023 351.886 39.6186 352.672 38.6508 352.672Z" fill="#0072BB"/>
</g>
<path d="M21.5704 2.55797C20.8641 2.55797 20.2925 1.9851 20.2925 1.27864C20.2925 0.572168 20.8641 2.37069e-08 21.5704 1.52646e-08C22.2761 6.83064e-09 22.8477 0.572168 22.8477 1.27864C22.8477 1.9851 22.2761 2.55797 21.5704 2.55797Z" fill="#0072BB"/>
<path d="M21.5704 20.4642C20.8641 20.4642 20.2925 19.8914 20.2925 19.1849C20.2925 18.4784 20.8641 17.9063 21.5704 17.9063C22.2761 17.9063 22.8477 18.4784 22.8477 19.1849C22.8477 19.8914 22.2761 20.4642 21.5704 20.4642Z" fill="#0072BB"/>
<path d="M21.5704 38.3705C20.8641 38.3705 20.2925 37.7976 20.2925 37.0911C20.2925 36.3847 20.8641 35.8125 21.5704 35.8125C22.2761 35.8125 22.8477 36.3847 22.8477 37.0911C22.8477 37.7976 22.2761 38.3705 21.5704 38.3705Z" fill="#0072BB"/>
<path d="M21.5704 54.9955C20.8641 54.9955 20.2925 54.4226 20.2925 53.7161C20.2925 53.0097 20.8641 52.4375 21.5704 52.4375C22.2761 52.4375 22.8477 53.0097 22.8477 53.7161C22.8477 54.4226 22.2761 54.9955 21.5704 54.9955Z" fill="#0072BB"/>
<path d="M21.5704 72.9017C20.8641 72.9017 20.2925 72.3289 20.2925 71.6224C20.2925 70.9159 20.8641 70.3438 21.5704 70.3438C22.2761 70.3438 22.8477 70.9159 22.8477 71.6224C22.8477 72.3289 22.2761 72.9017 21.5704 72.9017Z" fill="#0072BB"/>
<path d="M21.5704 72.9017C20.8641 72.9017 20.2925 72.3289 20.2925 71.6224C20.2925 70.9159 20.8641 70.3438 21.5704 70.3438C22.2761 70.3438 22.8477 70.9159 22.8477 71.6224C22.8477 72.3289 22.2761 72.9017 21.5704 72.9017Z" fill="#0072BB"/>
<path d="M21.5704 90.808C20.8641 90.808 20.2925 90.2351 20.2925 89.5286C20.2925 88.8222 20.8641 88.25 21.5704 88.25C22.2761 88.25 22.8477 88.8222 22.8477 89.5286C22.8477 90.2351 22.2761 90.808 21.5704 90.808Z" fill="#0072BB"/>
<path d="M21.5704 107.435C20.8641 107.435 20.2925 106.862 20.2925 106.156C20.2925 105.449 20.8641 104.877 21.5704 104.877C22.2761 104.877 22.8477 105.449 22.8477 106.156C22.8477 106.862 22.2761 107.435 21.5704 107.435Z" fill="#0072BB"/>
<path d="M21.5704 125.341C20.8641 125.341 20.2925 124.768 20.2925 124.062C20.2925 123.355 20.8641 122.783 21.5704 122.783C22.2761 122.783 22.8477 123.355 22.8477 124.062C22.8477 124.768 22.2761 125.341 21.5704 125.341Z" fill="#0072BB"/>
<path d="M21.5704 143.245C20.8641 143.245 20.2925 142.673 20.2925 141.966C20.2925 141.26 20.8641 140.688 21.5704 140.688C22.2761 140.688 22.8477 141.26 22.8477 141.966C22.8477 142.673 22.2761 143.245 21.5704 143.245Z" fill="#0072BB"/>
<path d="M21.5704 143.245C20.8641 143.245 20.2925 142.673 20.2925 141.966C20.2925 141.26 20.8641 140.688 21.5704 140.688C22.2761 140.688 22.8477 141.26 22.8477 141.966C22.8477 142.673 22.2761 143.245 21.5704 143.245Z" fill="#0072BB"/>
<path d="M21.5704 159.872C20.8641 159.872 20.2925 159.3 20.2925 158.593C20.2925 157.887 20.8641 157.314 21.5704 157.314C22.2761 157.314 22.8477 157.887 22.8477 158.593C22.8477 159.3 22.2761 159.872 21.5704 159.872Z" fill="#0072BB"/>
<path d="M21.5704 177.779C20.8641 177.779 20.2925 177.206 20.2925 176.499C20.2925 175.793 20.8641 175.221 21.5704 175.221C22.2761 175.221 22.8477 175.793 22.8477 176.499C22.8477 177.206 22.2761 177.779 21.5704 177.779Z" fill="#0072BB"/>
<path d="M21.5704 195.685C20.8641 195.685 20.2925 195.112 20.2925 194.406C20.2925 193.699 20.8641 193.127 21.5704 193.127C22.2761 193.127 22.8477 193.699 22.8477 194.406C22.8477 195.112 22.2761 195.685 21.5704 195.685Z" fill="#0072BB"/>
<path d="M21.5704 212.312C20.8641 212.312 20.2925 211.739 20.2925 211.033C20.2925 210.326 20.8641 209.754 21.5704 209.754C22.2761 209.754 22.8477 210.326 22.8477 211.033C22.8477 211.739 22.2761 212.312 21.5704 212.312Z" fill="#0072BB"/>
<path d="M21.5704 212.312C20.8641 212.312 20.2925 211.739 20.2925 211.033C20.2925 210.326 20.8641 209.754 21.5704 209.754C22.2761 209.754 22.8477 210.326 22.8477 211.033C22.8477 211.739 22.2761 212.312 21.5704 212.312Z" fill="#0072BB"/>
<path d="M21.5704 230.218C20.8641 230.218 20.2925 229.645 20.2925 228.939C20.2925 228.232 20.8641 227.66 21.5704 227.66C22.2761 227.66 22.8477 228.232 22.8477 228.939C22.8477 229.645 22.2761 230.218 21.5704 230.218Z" fill="#0072BB"/>
<path d="M21.5704 248.122C20.8641 248.122 20.2925 247.55 20.2925 246.843C20.2925 246.137 20.8641 245.564 21.5704 245.564C22.2761 245.564 22.8477 246.137 22.8477 246.843C22.8477 247.55 22.2761 248.122 21.5704 248.122Z" fill="#0072BB"/>
<path d="M21.5704 264.749C20.8641 264.749 20.2925 264.177 20.2925 263.47C20.2925 262.764 20.8641 262.191 21.5704 262.191C22.2761 262.191 22.8477 262.764 22.8477 263.47C22.8477 264.177 22.2761 264.749 21.5704 264.749Z" fill="#0072BB"/>
<path d="M21.5704 282.656C20.8641 282.656 20.2925 282.083 20.2925 281.376C20.2925 280.67 20.8641 280.098 21.5704 280.098C22.2761 280.098 22.8477 280.67 22.8477 281.376C22.8477 282.083 22.2761 282.656 21.5704 282.656Z" fill="#0072BB"/>
<path d="M21.5704 264.749C20.8641 264.749 20.2925 264.177 20.2925 263.47C20.2925 262.764 20.8641 262.191 21.5704 262.191C22.2761 262.191 22.8477 262.764 22.8477 263.47C22.8477 264.177 22.2761 264.749 21.5704 264.749Z" fill="#0072BB"/>
<path d="M21.5704 282.656C20.8641 282.656 20.2925 282.083 20.2925 281.376C20.2925 280.67 20.8641 280.098 21.5704 280.098C22.2761 280.098 22.8477 280.67 22.8477 281.376C22.8477 282.083 22.2761 282.656 21.5704 282.656Z" fill="#0072BB"/>
<path d="M21.5704 282.656C20.8641 282.656 20.2925 282.083 20.2925 281.376C20.2925 280.67 20.8641 280.098 21.5704 280.098C22.2761 280.098 22.8477 280.67 22.8477 281.376C22.8477 282.083 22.2761 282.656 21.5704 282.656Z" fill="#0072BB"/>
<path d="M21.5704 300.562C20.8641 300.562 20.2925 299.989 20.2925 299.283C20.2925 298.576 20.8641 298.004 21.5704 298.004C22.2761 298.004 22.8477 298.576 22.8477 299.283C22.8477 299.989 22.2761 300.562 21.5704 300.562Z" fill="#0072BB"/>
<path d="M21.5704 317.189C20.8641 317.189 20.2925 316.616 20.2925 315.909C20.2925 315.203 20.8641 314.631 21.5704 314.631C22.2761 314.631 22.8477 315.203 22.8477 315.909C22.8477 316.616 22.2761 317.189 21.5704 317.189Z" fill="#0072BB"/>
<path d="M21.5704 335.095C20.8641 335.095 20.2925 334.522 20.2925 333.816C20.2925 333.109 20.8641 332.537 21.5704 332.537C22.2761 332.537 22.8477 333.109 22.8477 333.816C22.8477 334.522 22.2761 335.095 21.5704 335.095Z" fill="#0072BB"/>
<mask id="mask5_121_19464" style="mask-type:luminance" maskUnits="userSpaceOnUse" x="19" y="349" width="4" height="4">
<path d="M22.5195 349.164L22.5195 352.672L19.0155 352.672L19.0155 349.164L22.5195 349.164Z" fill="white"/>
</mask>
<g mask="url(#mask5_121_19464)">
<path d="M20.768 352.672C19.7993 352.672 19.0155 351.886 19.0155 350.918C19.0155 349.949 19.7993 349.164 20.768 349.164C21.7357 349.164 22.5195 349.949 22.5195 350.918C22.5195 351.886 21.7357 352.672 20.768 352.672Z" fill="#0072BB"/>
</g>
<path d="M3.68372 2.55797C2.97734 2.55797 2.4058 1.9851 2.4058 1.27864C2.4058 0.572168 2.97734 2.37069e-08 3.68372 1.52646e-08C4.3894 6.83064e-09 4.96094 0.572168 4.96094 1.27864C4.96094 1.9851 4.3894 2.55797 3.68372 2.55797Z" fill="#0072BB"/>
<path d="M3.68763 20.4642C2.98124 20.4642 2.40971 19.8914 2.40971 19.1849C2.40971 18.4784 2.98124 17.9063 3.68763 17.9063C4.39331 17.9063 4.96484 18.4784 4.96484 19.1849C4.96484 19.8914 4.39331 20.4642 3.68763 20.4642Z" fill="#0072BB"/>
<path d="M3.68763 38.3705C2.98124 38.3705 2.40971 37.7976 2.40971 37.0911C2.40971 36.3847 2.98124 35.8125 3.68763 35.8125C4.39331 35.8125 4.96484 36.3847 4.96484 37.0911C4.96484 37.7976 4.39331 38.3705 3.68763 38.3705Z" fill="#0072BB"/>
<path d="M3.68763 54.9955C2.98124 54.9955 2.40971 54.4226 2.40971 53.7161C2.40971 53.0097 2.98124 52.4375 3.68763 52.4375C4.39331 52.4375 4.96484 53.0097 4.96484 53.7161C4.96484 54.4226 4.39331 54.9955 3.68763 54.9955Z" fill="#0072BB"/>
<path d="M3.68763 72.9017C2.98124 72.9017 2.40971 72.3289 2.40971 71.6224C2.40971 70.9159 2.98124 70.3438 3.68763 70.3438C4.39331 70.3438 4.96484 70.9159 4.96484 71.6224C4.96484 72.3289 4.39331 72.9017 3.68763 72.9017Z" fill="#0072BB"/>
<path d="M3.68763 72.9017C2.98124 72.9017 2.40971 72.3289 2.40971 71.6224C2.40971 70.9159 2.98124 70.3438 3.68763 70.3438C4.39331 70.3438 4.96484 70.9159 4.96484 71.6224C4.96484 72.3289 4.39331 72.9017 3.68763 72.9017Z" fill="#0072BB"/>
<path d="M3.68763 90.808C2.98124 90.808 2.40971 90.2351 2.40971 89.5286C2.40971 88.8222 2.98124 88.25 3.68763 88.25C4.39331 88.25 4.96484 88.8222 4.96484 89.5286C4.96484 90.2351 4.39331 90.808 3.68763 90.808Z" fill="#0072BB"/>
<path d="M3.68763 107.435C2.98124 107.435 2.40971 106.862 2.40971 106.156C2.40971 105.449 2.98124 104.877 3.68763 104.877C4.39331 104.877 4.96484 105.449 4.96484 106.156C4.96484 106.862 4.39331 107.435 3.68763 107.435Z" fill="#0072BB"/>
<path d="M3.68763 125.341C2.98124 125.341 2.40971 124.768 2.40971 124.062C2.40971 123.355 2.98124 122.783 3.68763 122.783C4.39331 122.783 4.96484 123.355 4.96484 124.062C4.96484 124.768 4.39331 125.341 3.68763 125.341Z" fill="#0072BB"/>
<path d="M3.68763 143.245C2.98124 143.245 2.40971 142.673 2.40971 141.966C2.40971 141.26 2.98124 140.688 3.68763 140.688C4.39331 140.688 4.96484 141.26 4.96484 141.966C4.96484 142.673 4.39331 143.245 3.68763 143.245Z" fill="#0072BB"/>
<path d="M3.68763 143.245C2.98124 143.245 2.40971 142.673 2.40971 141.966C2.40971 141.26 2.98124 140.688 3.68763 140.688C4.39331 140.688 4.96484 141.26 4.96484 141.966C4.96484 142.673 4.39331 143.245 3.68763 143.245Z" fill="#0072BB"/>
<path d="M3.68763 159.872C2.98124 159.872 2.40971 159.3 2.40971 158.593C2.40971 157.887 2.98124 157.314 3.68763 157.314C4.39331 157.314 4.96484 157.887 4.96484 158.593C4.96484 159.3 4.39331 159.872 3.68763 159.872Z" fill="#0072BB"/>
<path d="M3.68763 177.779C2.98124 177.779 2.40971 177.206 2.40971 176.499C2.40971 175.793 2.98124 175.221 3.68763 175.221C4.39331 175.221 4.96484 175.793 4.96484 176.499C4.96484 177.206 4.39331 177.779 3.68763 177.779Z" fill="#0072BB"/>
<path d="M3.68763 195.685C2.98124 195.685 2.40971 195.112 2.40971 194.406C2.40971 193.699 2.98124 193.127 3.68763 193.127C4.39331 193.127 4.96484 193.699 4.96484 194.406C4.96484 195.112 4.39331 195.685 3.68763 195.685Z" fill="#0072BB"/>
<path d="M3.68763 212.312C2.98124 212.312 2.40971 211.739 2.40971 211.033C2.40971 210.326 2.98124 209.754 3.68763 209.754C4.39331 209.754 4.96484 210.326 4.96484 211.033C4.96484 211.739 4.39331 212.312 3.68763 212.312Z" fill="#0072BB"/>
<path d="M3.68763 212.312C2.98124 212.312 2.40971 211.739 2.40971 211.033C2.40971 210.326 2.98124 209.754 3.68763 209.754C4.39331 209.754 4.96484 210.326 4.96484 211.033C4.96484 211.739 4.39331 212.312 3.68763 212.312Z" fill="#0072BB"/>
<path d="M3.68763 230.218C2.98124 230.218 2.40971 229.645 2.40971 228.939C2.40971 228.232 2.98124 227.66 3.68763 227.66C4.39331 227.66 4.96484 228.232 4.96484 228.939C4.96484 229.645 4.39331 230.218 3.68763 230.218Z" fill="#0072BB"/>
<path d="M3.68763 248.122C2.98124 248.122 2.40971 247.55 2.40971 246.843C2.40971 246.137 2.98124 245.564 3.68763 245.564C4.39331 245.564 4.96484 246.137 4.96484 246.843C4.96484 247.55 4.39331 248.122 3.68763 248.122Z" fill="#0072BB"/>
<path d="M3.68763 264.749C2.98124 264.749 2.40971 264.177 2.40971 263.47C2.40971 262.764 2.98124 262.191 3.68763 262.191C4.39331 262.191 4.96484 262.764 4.96484 263.47C4.96484 264.177 4.39331 264.749 3.68763 264.749Z" fill="#0072BB"/>
<path d="M3.68763 282.656C2.98124 282.656 2.40971 282.083 2.40971 281.376C2.40971 280.67 2.98124 280.098 3.68763 280.098C4.39331 280.098 4.96484 280.67 4.96484 281.376C4.96484 282.083 4.39331 282.656 3.68763 282.656Z" fill="#0072BB"/>
<path d="M3.68763 264.749C2.98124 264.749 2.40971 264.177 2.40971 263.47C2.40971 262.764 2.98124 262.191 3.68763 262.191C4.39331 262.191 4.96484 262.764 4.96484 263.47C4.96484 264.177 4.39331 264.749 3.68763 264.749Z" fill="#0072BB"/>
<path d="M3.68763 282.656C2.98124 282.656 2.40971 282.083 2.40971 281.376C2.40971 280.67 2.98124 280.098 3.68763 280.098C4.39331 280.098 4.96484 280.67 4.96484 281.376C4.96484 282.083 4.39331 282.656 3.68763 282.656Z" fill="#0072BB"/>
<path d="M3.68763 282.656C2.98124 282.656 2.40971 282.083 2.40971 281.376C2.40971 280.67 2.98124 280.098 3.68763 280.098C4.39331 280.098 4.96484 280.67 4.96484 281.376C4.96484 282.083 4.39331 282.656 3.68763 282.656Z" fill="#0072BB"/>
<path d="M3.68763 300.562C2.98124 300.562 2.40971 299.989 2.40971 299.283C2.40971 298.576 2.98124 298.004 3.68763 298.004C4.39331 298.004 4.96484 298.576 4.96484 299.283C4.96484 299.989 4.39331 300.562 3.68763 300.562Z" fill="#0072BB"/>
<path d="M3.68763 317.189C2.98124 317.189 2.40971 316.616 2.40971 315.909C2.40971 315.203 2.98124 314.631 3.68763 314.631C4.39331 314.631 4.96484 315.203 4.96484 315.909C4.96484 316.616 4.39331 317.189 3.68763 317.189Z" fill="#0072BB"/>
<path d="M3.68372 335.095C2.97734 335.095 2.4058 334.522 2.4058 333.816C2.4058 333.109 2.97734 332.537 3.68372 332.537C4.3894 332.537 4.96094 333.109 4.96094 333.816C4.96094 334.522 4.3894 335.095 3.68372 335.095Z" fill="#0072BB"/>
<mask id="mask6_121_19464" style="mask-type:luminance" maskUnits="userSpaceOnUse" x="2" y="349" width="4" height="4">
<path d="M5.91016 349.164L5.91016 352.672L2.40611 352.672L2.40611 349.164L5.91016 349.164Z" fill="white"/>
</mask>
<g mask="url(#mask6_121_19464)">
<path d="M4.15861 352.672C3.1899 352.672 2.40611 351.886 2.40611 350.918C2.40611 349.949 3.1899 349.164 4.15861 349.164C5.12637 349.164 5.91016 349.949 5.91016 350.918C5.91016 351.886 5.12637 352.672 4.15861 352.672Z" fill="#0072BB"/>
</g>
</svg>
