<svg width="50" height="50" viewBox="0 0 50 50" fill="none" xmlns="http://www.w3.org/2000/svg">
<circle cx="25" cy="25" r="25" fill="#002C4F"/>
<g clip-path="url(#clip0_121_8071)">
<path d="M30.2373 16.6476H32.7814V12.0028H28.158C27.7724 11.9868 23.0709 11.8969 21.8524 16.5438C21.8347 16.5925 21.4453 17.6976 21.4453 20.2792L17.2178 20.292V25.1636L21.4506 25.1513V38.0007H27.9163V25.1625H32.1957V20.2781H27.9163V18.7413C27.9163 17.7859 28.3191 16.6476 30.2373 16.6476ZM31.1258 21.3474V24.0921H26.8464V36.9303H22.5205V24.0782L18.2876 24.0905V21.3587L22.5317 21.3464L22.5205 20.8023C22.4648 18.0678 22.8548 16.9177 22.8725 16.8626C23.9241 12.8603 27.9398 13.0614 28.112 13.0721L31.7115 13.0732V15.5783H30.2373C27.7376 15.5783 26.8469 17.2119 26.8469 18.7407V21.3474H31.1258Z" fill="white"/>
</g>
<defs>
<clipPath id="clip0_121_8071">
<rect width="26" height="26" fill="white" transform="translate(12 12)"/>
</clipPath>
</defs>
</svg>
