<svg width="50" height="50" viewBox="0 0 50 50" fill="none" xmlns="http://www.w3.org/2000/svg">
<circle cx="25" cy="25" r="25" fill="#002C4F"/>
<path d="M33.5 25H41V26.2499H33.5V25Z" fill="white"/>
<path d="M36.6249 21.8749H37.8751V29.3749H36.6249V21.8749ZM21.6249 36.2501C15.7655 36.2501 11 31.4843 11 25.6249C11 19.7656 15.7655 15 21.6249 15C24.2795 14.9965 26.8388 15.9891 28.7969 17.7814L29.2812 18.2188L25.3125 22.1953L24.8751 21.8201C23.326 20.4984 21.1301 20.248 19.3231 21.1871C17.5163 22.1264 16.4595 24.0676 16.6515 26.095C16.8436 28.1222 18.2459 29.8306 20.1969 30.414C22.1479 30.9974 24.258 30.3392 25.5312 28.75H20.375V23.125H31.9688L32.0624 23.6327C32.1868 24.2895 32.2497 24.9564 32.2501 25.6249C32.2501 31.4842 27.4843 36.25 21.6249 36.25V36.2501ZM21.6249 16.2499C16.4474 16.2499 12.2499 20.4474 12.2499 25.6249C12.2499 30.8027 16.4474 34.9999 21.6249 34.9999C26.8027 34.9999 30.9999 30.8027 30.9999 25.6249C30.9989 25.2069 30.9702 24.7893 30.9141 24.375H21.6249V27.4999H27.672L27.2266 28.4063C26.0634 30.7483 23.5654 32.1185 20.9655 31.8409C18.3654 31.5635 16.2128 29.6965 15.5705 27.1619C14.9281 24.6273 15.9312 21.9605 18.0853 20.4781C20.2393 18.9954 23.0884 19.0105 25.2266 20.5156L27.4531 18.2813C25.7965 16.9636 23.7416 16.2474 21.6249 16.2499H21.6249Z" fill="white"/>
</svg>
