
<svg width="128" height="194" viewBox="0 0 128 194" fill="none" xmlns="http://www.w3.org/2000/svg">
<g opacity="0.1">
<path d="M167.603 79.4897L167.371 99.934L147.968 69.5138L155.705 131.242L117.219 65.1496L121.179 100.592L47.8868 127.68C63.2474 138.079 82.3851 147.516 104.748 155.765L143.771 170.14L163.382 134.094C171.919 118.554 182.892 95.4103 188.339 71.9553L167.603 79.4897Z" fill="#79C9BC"/>
<path d="M136.376 2.91722C126.978 4.29716 118.216 8.44225 111.241 14.7752C104.181 21.2227 99.3516 29.3847 97.149 38.4881L95.6236 44.6335L90.3935 40.9093C80.3139 33.9156 67.8623 30.9455 55.6346 32.7409C46.6407 34.0615 38.2523 37.9476 31.4024 43.7518C21.8311 51.9974 16.0675 63.4613 15.2318 76.0394C14.3961 88.6175 18.5587 100.768 26.9739 110.354C28.8466 112.427 33.0582 116.914 40.5497 122.552C41.2595 123.128 41.9977 123.666 42.7645 124.166L115.599 97.3411L109.468 41.2734L147.42 106.554L140.054 47.196L162.375 82.4076L162.525 76.0559L189.718 66.1416C189.874 65.3701 190.019 64.532 190.154 63.6274C191.338 56.6133 191.518 51.7885 191.48 49.548C191.375 36.9039 186.334 25.0866 177.305 16.2031C168.174 7.33449 156.135 2.36405 143.426 2.39246C141.055 2.43429 138.7 2.57594 136.376 2.91722Z" fill="#79C9BC"/>
<path fill-rule="evenodd" clip-rule="evenodd" d="M195.687 49.4627C195.708 50.4796 195.673 51.8106 195.585 53.4556C195.548 54.5489 195.465 55.7852 195.335 57.1642C195.107 59.2377 194.79 61.6302 194.385 64.3415C194.084 65.9497 193.765 67.6625 193.428 69.4799C193.324 69.6992 193.26 69.9467 193.234 70.2225C191.296 79.6867 187.711 91.8408 181.554 106.718C180.559 109.176 179.468 111.682 178.282 114.237C175.219 121.112 171.612 128.475 167.244 136.257L165.316 139.803L145.884 175.601L103.265 159.928C85.6105 153.339 71.3502 146.661 60.1428 140.35C57.8749 139.051 55.7183 137.803 53.6731 136.608C51.6849 135.336 49.8079 134.115 48.0423 132.946C46.2094 131.787 44.5163 130.642 42.963 129.51C41.1198 128.285 39.4163 127.073 37.8527 125.874C36.4444 124.789 35.1087 123.727 33.8454 122.688C31.8625 121.008 30.1125 119.496 28.5955 118.155C28.0209 117.56 27.4902 117.025 27.0035 116.553C26.7602 116.317 26.5169 116.08 26.2736 115.844C25.1346 114.719 24.2675 113.793 23.6721 113.064C17.1492 105.658 13.1125 96.9683 11.5151 88.0229C9.65413 77.3822 11.1413 66.3521 15.9374 56.6723C17.0308 54.4038 18.308 52.2103 19.7691 50.0919C21.2405 48.0399 22.8569 46.0347 24.6183 44.0762C25.8668 42.8049 27.1593 41.5952 28.4958 40.447C29.0501 40.0257 29.5992 39.5711 30.1431 39.0832C30.3348 38.9871 30.5212 38.8577 30.7026 38.6951C31.0755 38.4364 31.4432 38.1444 31.8059 37.8192C31.9975 37.7231 32.2177 37.5887 32.4664 37.4162C32.8393 37.1575 33.1786 36.9037 33.4842 36.6548C33.7328 36.4823 33.9866 36.3431 34.2455 36.2371C34.6185 35.9783 34.9915 35.7196 35.3645 35.4609C35.5561 35.3647 35.7477 35.2686 35.9394 35.1725C36.4367 34.8275 36.9442 34.549 37.4622 34.3369C37.5192 34.2606 37.6099 34.1793 37.7342 34.093C38.3091 33.8046 38.9178 33.5113 39.56 33.213C39.7517 33.1169 39.9433 33.0208 40.1349 32.9246C40.5182 32.7324 40.9351 32.5352 41.3857 32.333C41.5774 32.2369 41.8027 32.1358 42.0617 32.0298C42.4553 31.904 42.8438 31.745 43.227 31.5528C43.486 31.4467 43.745 31.3407 44.004 31.2347C44.3976 31.1089 44.7912 30.9832 45.1848 30.8574C45.4438 30.7514 45.6744 30.6835 45.8763 30.6539C46.3943 30.4418 46.8837 30.268 47.3447 30.1323C47.4793 30.1126 47.6425 30.0546 47.8341 29.9585C48.4297 29.8031 49.0589 29.6427 49.7219 29.4774C49.9238 29.4478 50.0922 29.423 50.2268 29.4033C50.6878 29.2676 51.1539 29.1652 51.6252 29.096C51.8842 28.99 52.1484 28.9172 52.4177 28.8777C52.8216 28.8184 53.2255 28.7591 53.6295 28.6998C53.8988 28.6603 54.1682 28.6207 54.4375 28.5812C54.5618 28.495 54.725 28.437 54.9269 28.4074C55.0719 28.4541 55.2454 28.4626 55.4474 28.433C55.9187 28.3638 56.39 28.2946 56.8613 28.2254C57.1306 28.1859 57.4335 28.1414 57.7701 28.092C58.2517 28.0893 58.7282 28.0534 59.1995 27.9842C59.4792 28.0111 59.7873 27.9999 60.124 27.9505C60.6729 27.9379 61.2218 27.9253 61.7708 27.9127C61.9728 27.8831 62.1799 27.8867 62.3922 27.9235C63.1432 27.8813 63.9381 27.9006 64.7771 27.9814C64.9117 27.9617 65.0516 27.9752 65.1966 28.0219C65.8129 27.9994 66.4342 28.0102 67.0608 28.0542C67.3405 28.0812 67.6202 28.1081 67.8998 28.1351C68.3918 28.1988 68.8838 28.2626 69.3758 28.3264C69.6554 28.3533 69.9401 28.4136 70.2301 28.507C70.7221 28.5708 71.2141 28.6345 71.706 28.6983C71.9857 28.7253 72.2705 28.7855 72.5605 28.8789C73.0525 28.9427 73.5496 29.0397 74.0519 29.17C74.3316 29.1969 74.6163 29.2571 74.9063 29.3505C75.4086 29.4808 75.9109 29.6111 76.4132 29.7413C76.6256 29.7782 76.8767 29.8433 77.1666 29.9367C77.8916 30.1703 78.6165 30.4039 79.3415 30.6375C79.4865 30.6842 79.5927 30.7026 79.66 30.6927C80.3177 30.9362 80.9416 31.1846 81.5319 31.4379C81.8219 31.5314 82.0782 31.6297 82.3009 31.733C82.8135 31.9298 83.2924 32.1315 83.7377 32.3381C84.0277 32.4316 84.2841 32.5299 84.5068 32.6332C84.9521 32.8399 85.3973 33.0465 85.8426 33.2531C86.143 33.413 86.4433 33.5729 86.7437 33.7329C87.189 33.9395 87.6006 34.1511 87.9786 34.3676C88.2789 34.5275 88.5455 34.6923 88.7785 34.8621C89.2341 35.1353 89.6898 35.4084 90.1455 35.6815C90.3681 35.7848 90.5959 35.9213 90.8289 36.0911C91.5072 36.4676 92.157 36.8822 92.7783 37.335C92.7783 37.335 92.7835 37.3682 92.7938 37.4347C92.9598 36.7303 93.1646 36.0543 93.4082 35.4065C93.4445 35.1972 93.4809 34.9879 93.5172 34.7785C93.6572 34.35 93.7919 33.8882 93.9215 33.3932C94.0252 33.174 94.1237 32.9215 94.217 32.6359C94.3673 32.2738 94.5124 31.8785 94.6524 31.45C94.756 31.2308 94.8545 30.9783 94.9478 30.6926C95.0981 30.3305 95.2484 29.9685 95.3987 29.6064C95.492 29.3207 95.6241 29.0634 95.7951 28.8343C95.9454 28.4722 96.0957 28.1101 96.246 27.7481C96.3393 27.4624 96.4714 27.205 96.6424 26.9759C96.7927 26.6139 96.943 26.2518 97.0933 25.8897C97.2643 25.6607 97.4016 25.4365 97.5052 25.2173C97.7228 24.8453 97.9405 24.4734 98.1581 24.1015C98.2618 23.8822 98.3991 23.6581 98.5701 23.429C98.7773 22.9906 99.0183 22.5472 99.2929 22.0989C99.4069 21.9462 99.4872 21.7984 99.5338 21.6556C99.9328 21.121 100.332 20.5865 100.731 20.0519C100.845 19.8992 100.953 19.7132 101.057 19.494C101.352 19.1786 101.643 18.8301 101.927 18.4482C102.098 18.2191 102.269 17.9901 102.44 17.761C102.668 17.4555 102.896 17.15 103.124 16.8446C103.295 16.6155 103.505 16.4147 103.754 16.2422C103.982 15.9367 104.21 15.6313 104.438 15.3258C104.676 15.0868 104.886 14.8861 105.067 14.7234C105.295 14.418 105.562 14.1408 105.867 13.892C106.038 13.6629 106.243 13.4288 106.481 13.1899C106.72 12.9509 106.992 12.707 107.297 12.4581C107.468 12.229 107.678 12.0282 107.927 11.8557C108.232 11.6069 108.504 11.363 108.742 11.124C108.981 10.885 109.224 10.6793 109.473 10.5068C109.779 10.2579 110.079 9.97581 110.374 9.66047C110.566 9.56433 110.786 9.43003 111.035 9.25753C111.522 8.84606 112.042 8.42964 112.596 8.00828C112.721 7.92204 112.845 7.8358 112.969 7.74956C113.399 7.41445 113.801 7.11752 114.174 6.85878C114.433 6.75276 114.687 6.6135 114.935 6.44101C115.241 6.19215 115.552 5.97653 115.868 5.79415C116.116 5.62166 116.404 5.47747 116.73 5.36158C117.046 5.1792 117.357 4.96358 117.662 4.71472C117.921 4.60871 118.175 4.46945 118.424 4.29695C118.807 4.10469 119.162 3.95062 119.488 3.83472C119.737 3.66223 119.991 3.52297 120.25 3.41695C120.633 3.22469 120.982 3.03738 121.298 2.855C121.557 2.74898 121.85 2.63803 122.176 2.52213C122.492 2.33975 122.847 2.18568 123.241 2.0599C123.5 1.95389 123.759 1.84787 124.018 1.74185C124.411 1.61607 124.8 1.45706 125.183 1.2648C125.442 1.15879 125.706 1.08601 125.975 1.04648C126.493 0.834448 127.017 0.655667 127.545 0.510121C127.679 0.490356 127.809 0.437346 127.933 0.351099C128.596 0.185788 129.259 0.020477 129.922 -0.144834C130.114 -0.240964 130.311 -0.30385 130.512 -0.333497C130.973 -0.46916 131.44 -0.571583 131.911 -0.640765C132.17 -0.746778 132.434 -0.81954 132.703 -0.859071C133.175 -0.928251 133.612 -0.992497 134.016 -1.05179C134.275 -1.15781 134.539 -1.23057 134.809 -1.2701C135.078 -1.30963 135.347 -1.34917 135.616 -1.3887L136.283 2.89936C126.891 4.27803 118.135 8.41927 111.165 14.7463C104.109 21.1879 99.2828 29.3423 97.0815 38.4373L95.5571 44.5769L90.3303 40.8563C80.2572 33.869 67.8135 30.9017 55.5936 32.6954C46.6055 34.0148 38.2224 37.8973 31.3768 43.6961C21.8116 51.934 16.0517 63.3874 15.2165 75.9538C14.3814 88.5202 18.5413 100.659 26.9512 110.237C28.8226 112.308 33.0316 116.79 40.5184 122.423C41.2277 122.999 41.9654 123.537 42.7317 124.036L115.52 97.2357L109.393 41.22L147.32 106.44L139.959 47.1371L162.266 82.3161L162.416 75.9702L189.592 66.0652C189.747 65.2943 189.893 64.457 190.027 63.5532C191.21 56.5457 191.391 51.7253 191.353 49.4869C191.248 36.8545 186.21 25.0482 177.186 16.173C168.061 7.31254 156.03 2.3467 143.329 2.37509C140.96 2.41689 138.606 2.5584 136.283 2.89936L135.616 -1.3887C135.751 -1.40847 135.919 -1.43317 136.121 -1.46282C136.391 -1.50236 136.665 -1.50865 136.945 -1.4817C137.349 -1.541 137.786 -1.60523 138.258 -1.67441C138.527 -1.71394 138.796 -1.75348 139.066 -1.79301C139.547 -1.79571 140.029 -1.79841 140.511 -1.80111C140.713 -1.83076 140.915 -1.86041 141.117 -1.89005C141.867 -1.93228 142.59 -1.93633 143.284 -1.90219C153.196 -1.92922 162.501 0.784791 170.369 5.54582C171.803 6.35527 173.186 7.27432 174.516 8.30299C175.904 9.25528 177.201 10.2889 178.407 11.4038C179.049 11.9895 179.652 12.547 180.217 13.0761C181.433 14.2575 182.554 15.487 183.579 16.7645C191.158 25.6479 195.613 37.0297 195.687 49.4627ZM188.355 72.0607L167.627 79.5912L167.395 100.025L148 69.6204L155.733 131.316L117.262 65.2585L121.221 100.683L47.9585 127.757C63.3128 138.151 82.4429 147.582 104.797 155.827L143.804 170.195L163.407 134.168C171.941 118.635 182.909 95.5036 188.355 72.0607Z" fill="white"/>
</g>
</svg>
