<svg width="50" height="50" viewBox="0 0 50 50" fill="none" xmlns="http://www.w3.org/2000/svg">
<circle cx="25" cy="25" r="25" fill="#002C4F"/>
<g clip-path="url(#clip0_121_8076)">
<path d="M15.51 12.2168C14.5567 12.2168 13.69 12.5635 13.04 13.2135C12.3467 13.9068 12 14.7734 12 15.6834C12 16.6367 12.39 17.5034 13.04 18.1534C13.69 18.8034 14.6 19.1934 15.4667 19.1501H15.5534C16.4201 19.1501 17.2434 18.8034 17.8934 18.1534C18.5434 17.5034 18.9334 16.6367 18.9334 15.6834C18.9767 14.7734 18.5867 13.9067 17.9367 13.2567C17.2867 12.5634 16.42 12.2168 15.51 12.2168ZM17.2867 17.5468C16.81 18.0235 16.16 18.3268 15.4667 18.2835C14.8167 18.2835 14.1234 18.0235 13.6467 17.5468C13.1267 17.0701 12.8667 16.3768 12.8667 15.6835C12.8667 14.9902 13.1267 14.3402 13.6467 13.8202C14.1234 13.3435 14.7734 13.0835 15.51 13.0835C16.16 13.0835 16.81 13.3435 17.2867 13.8202C17.8067 14.3402 18.0667 14.9902 18.0667 15.6835C18.0667 16.3768 17.8067 17.0701 17.2867 17.5468ZM17.2 20.0168H13.69C12.9967 20.0168 12.4333 20.5801 12.4333 21.3168V36.4835C12.4333 37.1768 13.04 37.7835 13.7333 37.7835H17.2C17.8933 37.7835 18.5 37.1768 18.5 36.5268V21.3168C18.5 20.6234 17.8933 20.0168 17.2 20.0168ZM17.6333 36.5268C17.6333 36.7435 17.4166 36.9168 17.2 36.9168H13.7333C13.5166 36.9168 13.3 36.7001 13.3 36.4835V21.3168C13.3 21.1001 13.4733 20.8835 13.69 20.8835H17.2C17.4167 20.8835 17.6333 21.1002 17.6333 21.3168V36.5268ZM31.9333 19.5834H31.0233C29.3333 19.5834 27.73 20.3201 26.69 21.4901V20.8834C26.69 20.4501 26.2567 20.0167 25.8233 20.0167H21.49C21.1 20.0167 20.6233 20.3634 20.6233 20.8401V37.0034C20.6233 37.4801 21.1 37.7834 21.49 37.7834H26.2567C26.6467 37.7834 27.1234 37.4801 27.1234 37.0034V27.6434C27.1234 26.2134 28.1634 25.0867 29.5067 25.0867C30.2 25.0867 30.85 25.3467 31.3267 25.8234C31.76 26.2134 31.9334 26.8201 31.9334 27.6001V36.9167C31.9334 37.3501 32.3667 37.7834 32.8001 37.7834H37.1334C37.5667 37.7834 38 37.3501 38 36.9167V25.7367C38 22.2701 35.3567 19.5834 31.9333 19.5834ZM37.1333 36.8734L37.09 36.9167H32.8433L32.8 27.6001C32.8 26.5601 32.54 25.7801 31.9767 25.2168C31.3267 24.5668 30.46 24.2201 29.55 24.2201C27.73 24.2634 26.3 25.7368 26.3 27.6434V36.9167H21.5333V20.8834H25.8233L25.8666 20.9267V23.6567L27.0366 22.4867L27.08 22.4434C27.9466 21.2301 29.4633 20.4501 31.0666 20.4501H31.9766C34.8799 20.4501 37.1333 22.7901 37.1333 25.7368V36.8734Z" fill="white"/>
</g>
<defs>
<clipPath id="clip0_121_8076">
<rect width="26" height="26" fill="white" transform="translate(12 12)"/>
</clipPath>
</defs>
</svg>
