<svg width="50" height="50" viewBox="0 0 50 50" fill="none" xmlns="http://www.w3.org/2000/svg">
<circle cx="25" cy="25" r="25" fill="#002C4F"/>
<g clip-path="url(#clip0_121_8045)">
<path d="M25 12C19.704 12 15.3955 16.3085 15.3955 21.6045C15.3955 23.348 16.1774 25.2232 16.2102 25.3023C16.4627 25.9017 16.961 26.8328 17.3204 27.3785L23.9057 37.3565C24.1752 37.7655 24.574 38 25 38C25.426 38 25.8249 37.7655 26.0944 37.3571L32.6803 27.3785C33.0401 26.8328 33.5379 25.9017 33.7904 25.3023C33.8232 25.2237 34.6045 23.3486 34.6045 21.6045C34.6045 16.3085 30.2961 12 25 12ZM32.7486 24.8638C32.5232 25.4011 32.0593 26.2672 31.7367 26.7565L25.1509 36.735C25.0209 36.9322 24.9797 36.9322 24.8497 36.735L18.2639 26.7565C17.9413 26.2672 17.4774 25.4006 17.252 24.8633C17.2424 24.8401 16.5255 23.1141 16.5255 21.6045C16.5255 16.9316 20.3271 13.1299 25 13.1299C29.6729 13.1299 33.4746 16.9316 33.4746 21.6045C33.4746 23.1164 32.756 24.8469 32.7486 24.8638Z" fill="white"/>
<path d="M24.9998 16.5195C22.1958 16.5195 19.915 18.8009 19.915 21.6043C19.915 24.4077 22.1958 26.689 24.9998 26.689C27.8037 26.689 30.0845 24.4077 30.0845 21.6043C30.0845 18.8009 27.8037 16.5195 24.9998 16.5195ZM24.9998 25.5591C22.8196 25.5591 21.045 23.7851 21.045 21.6043C21.045 19.4235 22.8196 17.6495 24.9998 17.6495C27.18 17.6495 28.9546 19.4235 28.9546 21.6043C28.9546 23.7851 27.18 25.5591 24.9998 25.5591Z" fill="white"/>
</g>
<defs>
<clipPath id="clip0_121_8045">
<rect width="26" height="26" fill="white" transform="translate(12 12)"/>
</clipPath>
</defs>
</svg>
