<svg width="50" height="50" viewBox="0 0 50 50" fill="none" xmlns="http://www.w3.org/2000/svg">
<circle cx="25" cy="25" r="25" fill="#002C4F"/>
<path d="M35.8333 15.25H14.1667C12.9717 15.25 12 16.2217 12 17.4167V32.5834C12 33.7783 12.9717 34.75 14.1667 34.75H35.8334C37.0283 34.75 38 33.7783 38 32.5833V17.4167C38 16.2217 37.0283 15.25 35.8333 15.25ZM14.1667 16.3333H35.8334C35.9132 16.3333 35.9835 16.3624 36.0584 16.3789C34.1826 18.0956 27.9627 23.7858 25.7861 25.7469C25.6158 25.9003 25.3413 26.0833 25.0001 26.0833C24.6589 26.0833 24.3843 25.9003 24.2134 25.7464C22.037 23.7856 15.8168 18.0951 13.9413 16.379C14.0163 16.3625 14.0868 16.3333 14.1667 16.3333ZM13.0833 32.5833V17.4167C13.0833 17.3106 13.1153 17.2143 13.1439 17.1173C14.5796 18.4313 18.9196 22.4016 21.7337 24.9606C18.9287 27.37 14.5877 31.4857 13.1405 32.8657C13.115 32.7735 13.0833 32.6835 13.0833 32.5833ZM35.8333 33.6667H14.1667C14.0802 33.6667 14.0032 33.6365 13.9224 33.6172C15.4178 32.1917 19.7865 28.0523 22.5421 25.6949C22.857 25.9807 23.1724 26.2661 23.4882 26.551C23.9347 26.9541 24.4572 27.1667 25 27.1667C25.5428 27.1667 26.0653 26.954 26.5113 26.5515C26.8272 26.2664 27.1428 25.9809 27.4579 25.6949C30.2137 28.0521 34.5818 32.1911 36.0776 33.6172C35.9968 33.6365 35.92 33.6667 35.8333 33.6667ZM36.9167 32.5833C36.9167 32.6834 36.885 32.7735 36.8595 32.8657C35.4118 31.485 31.0713 27.3698 28.2664 24.9606C31.0805 22.4016 35.4199 18.4317 36.8561 17.1172C36.8847 17.2142 36.9167 17.3105 36.9167 17.4166V32.5833Z" fill="white"/>
</svg>
