<svg xmlns="http://www.w3.org/2000/svg" width="124" height="159" viewBox="0 0 124 159" fill="none">
  <g opacity="0.1">
    <path d="M6.73511 118.537L57.0352 157.966C59.5352 159.932 63.2351 159.539 65.2351 157.081L125.635 82.5491C127.635 80.0909 127.235 76.5512 124.735 74.5847L74.3351 35.1556C71.8351 33.1891 68.2351 33.5824 66.2351 36.0406L59.5352 44.2016L103.835 78.9111L56.7351 137.022L12.5352 102.313L5.83509 110.572C3.83509 113.03 4.23511 116.57 6.73511 118.537Z" fill="#79C9BC"/>
    <path d="M56.5391 41.8427L63.0391 33.9766L33.0391 70.9476L56.5391 41.8427Z" fill="#79C9BC"/>
    <path d="M87.1367 27.0938L80.6367 35.0583L123.337 68.5878L129.837 60.5249L106.337 42.1378L87.1367 27.0938Z" fill="#BDE5DE"/>
    <path d="M96.3367 0.642578L79.6367 21.1929L106.337 42.1365L129.837 60.5236L136.937 66.03L153.537 45.4797L96.3367 0.642578Z" fill="#79C9BC"/>
    <path d="M56.5376 41.8418L33.0376 70.9467L9.4375 99.9531L56.5376 41.8418Z" fill="#BDE5DE"/>
    <path fill-rule="evenodd" clip-rule="evenodd" d="M56.739 137.022L12.5391 102.312L59.5391 44.2012L103.839 78.9106L56.739 137.022ZM50.139 107.032L57.639 97.8876L66.939 105.164L74.5391 95.8228L65.139 88.5466L72.639 79.3039L63.139 71.9294L55.639 81.0738L46.339 73.7975L38.739 83.0403L48.139 90.4148L40.639 99.6576L50.139 107.032Z" fill="#BDE5DE"/>
    <path d="M66.9343 105.165L74.5344 95.8238L65.1344 88.4493L72.6344 79.305L63.1344 71.832L55.6344 81.0748L46.3344 73.7003L38.7344 83.0413L48.1344 90.4158L40.6344 99.5603L50.1344 107.033L57.6344 97.7904L66.9343 105.165Z" fill="#79C9BC"/>
    <path fill-rule="evenodd" clip-rule="evenodd" d="M128.636 84.9096L68.2363 159.441C64.9363 163.571 58.8363 164.259 54.6363 160.916L4.33627 121.487C0.136273 118.242 -0.463727 112.244 2.83627 108.213L3.03635 107.918L9.43625 99.9536L56.5363 41.8424L63.0363 33.9762L63.2363 33.6813C66.5363 29.5516 72.6363 28.8633 76.7363 32.1081L127.136 71.6355C131.236 74.8802 131.936 80.8782 128.636 84.9096ZM6.7363 118.537L57.0363 157.967C59.5363 159.933 63.2363 159.54 65.2363 157.082L125.636 82.5497C127.636 80.0915 127.236 76.5518 124.736 74.5853L74.3363 35.1562C71.8363 33.1897 68.2363 33.583 66.2363 36.0412L59.5363 44.2022L12.5363 102.313L5.83627 110.573C3.83627 113.031 4.2363 116.571 6.7363 118.537Z" fill="white"/>
  </g>
</svg>