
<svg width="323" height="371" viewBox="0 0 323 371" fill="none" xmlns="http://www.w3.org/2000/svg">
<g opacity="0.1">
<path d="M125.311 158.891C130.682 199.889 130.781 249.86 96.8591 265.933C62.8369 281.943 24.3457 250.214 -3.92356 219.941L14.8133 217.07C14.8133 217.07 41.8077 244.122 78.3811 226.909C114.935 209.614 111.107 171.517 111.107 171.517L125.311 158.891Z" fill="#BDE5DE"/>
<path d="M97.9426 268.339C77.6145 277.943 53.5166 272.285 26.2953 251.558C3.14953 233.907 -18.0465 208.495 -29.4228 194.856C-40.4591 181.566 -65.5176 147.787 -59.5788 120.874C-57.0514 109.369 -49.2661 100.489 -36.4288 94.4562L-34.1813 99.2523C-45.3865 104.557 -52.1621 112.254 -54.3216 122.04C-59.7827 146.607 -35.8788 178.768 -25.3407 191.402C-2.20947 219.193 51.9373 284.168 95.676 263.462C139.434 242.837 123.536 159.738 116.712 124.238C113.665 108.033 103.986 69.1681 81.5469 57.7935C72.6449 53.1919 62.3568 53.6418 51.1517 58.9465L48.8037 54.0883C61.641 48.0551 73.4898 47.6668 83.9433 53.0193C108.537 65.518 118.758 106.317 121.978 123.254C125.313 140.679 131.527 173.231 130.487 202.339C129.258 236.474 118.271 258.736 97.9426 268.339Z" fill="white"/>
<path d="M-40.5124 85.8843L-7.42837 70.267C-4.95856 69.0834 -2.0521 70.1162 -0.868481 72.586L5.30365 85.6483C6.48726 88.1181 5.37309 91.0438 2.98466 92.2082L-30.0994 107.825L-40.5124 85.8843Z" fill="#79C9BC"/>
<path d="M44.8011 45.4966L11.7363 61.1952C9.32864 62.2783 8.23366 65.2853 9.39809 67.6737L15.5894 80.8174C16.7538 83.2058 19.6795 84.32 22.1493 83.1364L55.152 67.5383L44.8011 45.4966Z" fill="#79C9BC"/>
<path d="M195.219 388.003C185.709 392.479 175.014 393.025 165.064 389.443C155.133 385.943 147.159 378.718 142.664 369.126L94.3697 267.035L99.2471 264.769L147.541 366.859C151.384 375.145 158.257 381.341 166.876 384.377C175.433 387.514 184.687 387.051 192.953 383.126C209.954 375.08 217.265 354.716 209.219 337.714L173.644 262.605C169.149 253.013 168.603 242.318 172.184 232.368C175.703 222.518 182.929 214.544 192.44 210.068C212.136 200.7 235.689 209.149 244.976 228.864L287.611 318.974L282.815 321.222L240.18 231.112C232.134 214.11 211.77 206.799 194.768 214.845C186.502 218.77 180.306 225.643 177.169 234.199C174.113 242.737 174.596 252.072 178.502 260.257L214.016 335.467C223.283 355.101 214.834 378.654 195.219 388.003Z" fill="white"/>
<path d="M260.564 331.793C254.094 318.199 259.952 301.871 273.564 295.484C287.158 289.014 303.404 294.891 309.874 308.484C316.343 322.078 310.466 338.325 296.873 344.794C283.279 351.263 266.951 345.406 260.564 331.793Z" fill="#79C9BC"/>
<path d="M272.856 325.975C269.621 319.178 272.49 310.942 279.388 307.77C286.184 304.535 294.339 307.423 297.592 314.301C300.827 321.098 297.939 329.252 291.061 332.506C284.264 335.741 276.091 332.771 272.856 325.975Z" fill="#BDE5DE"/>
</g>
</svg>
