
<svg width="299" height="363" viewBox="0 0 299 363" fill="none" xmlns="http://www.w3.org/2000/svg">
<g opacity="0.1">
<path d="M98.1284 259.406C77.8859 268.796 53.8317 263.145 26.6113 242.642C3.46612 225.182 -17.7606 200.085 -29.1535 186.614C-40.206 173.489 -65.3134 140.139 -59.4812 113.653C-56.9993 102.33 -49.2645 93.6103 -36.4811 87.7107L-34.2232 92.4416C-45.3811 97.6291 -52.113 105.187 -54.2338 114.818C-59.5975 138.995 -35.647 170.749 -25.0936 183.226C-1.92871 210.673 52.2968 274.843 95.8512 254.595C139.425 234.426 123.287 152.533 116.361 117.546C113.267 101.577 103.482 63.2684 81.0627 51.9919C72.1684 47.4307 61.9086 47.8398 50.7507 53.0273L48.3924 48.2348C61.1758 42.3353 72.9923 41.9919 83.4367 47.2979C108.009 59.6885 118.341 99.9039 121.61 116.595C124.995 133.767 131.303 165.847 130.364 194.511C129.254 228.126 118.371 250.015 98.1284 259.406Z" fill="white"/>
<path d="M-40.4893 79.5696L-7.50318 64.2771C-5.04074 63.118 -2.13473 64.1461 -0.944355 66.5857L5.26367 79.4882C6.45405 81.9278 5.35131 84.8094 2.97007 85.9499L-30.0161 101.242L-40.4893 79.5696Z" fill="#79C9BC"/>
<path d="M44.7175 39.9294L11.7511 55.3021C9.3504 56.3622 8.26711 59.3241 9.43804 61.6834L15.6655 74.666C16.8364 77.0253 19.7618 78.1337 22.2242 76.9746L55.1289 61.701L44.7175 39.9294Z" fill="#79C9BC"/>
<path d="M195.514 376.909C186.038 381.287 175.368 381.79 165.426 378.228C155.504 374.747 147.522 367.601 143.004 358.135L94.4651 257.384L99.3246 255.167L147.864 355.918C151.727 364.094 158.606 370.222 167.218 373.242C175.767 376.361 185 375.935 193.236 372.095C210.174 364.224 217.401 344.182 209.315 327.404L173.558 253.28C169.04 243.814 168.46 233.274 172 223.482C175.478 213.789 182.662 205.956 192.137 201.577C211.761 192.411 235.294 200.814 244.628 220.27L287.479 309.198L282.7 311.397L239.85 222.469C231.763 205.691 211.416 198.42 194.477 206.291C186.242 210.131 180.081 216.883 176.98 225.303C173.96 233.705 174.474 242.905 178.399 250.983L214.093 325.205C223.408 344.582 215.056 367.761 195.514 376.909Z" fill="white"/>
</g>
</svg>
