<svg width="90" height="450" viewBox="0 0 90 450" fill="none" xmlns="http://www.w3.org/2000/svg">
<circle cx="45" cy="225" r="44.5" stroke="#ED3237"/>
<circle cx="45" cy="405" r="44.5" stroke="#ED3237"/>
<rect x="44" y="89" width="2" height="92" fill="#ED3237"/>
<rect x="44" y="269" width="2" height="92" fill="#ED3237"/>
<circle cx="45" cy="45" r="44.5" stroke="#ED3237"/>
<path d="M58.31 53.3694C56.405 59.6452 50.72 64.1897 44 64.1897C37.28 64.1897 31.595 59.6452 29.69 53.3694H21.8L23.3 58.0994C23.4275 58.509 23.8475 58.7332 24.245 58.6018L26.0075 58.0067C26.3525 57.8907 26.72 58.053 26.9 58.3777C27.693 59.8795 28.6711 61.2693 29.81 62.5126C29.9321 62.6431 30.0057 62.8137 30.018 62.9946C30.0304 63.1754 29.9806 63.355 29.8775 63.5018L28.79 65.0476C28.7313 65.1296 28.689 65.2228 28.6655 65.3217C28.642 65.4207 28.6378 65.5235 28.6531 65.6241C28.6685 65.7248 28.7031 65.8213 28.7549 65.9081C28.8067 65.9948 28.8747 66.0702 28.955 66.1296L32.5925 68.8502C32.93 69.1052 33.4025 69.0279 33.6425 68.6801L34.73 67.1344C34.9475 66.833 35.3375 66.7402 35.6675 66.8948C37.145 67.6213 38.7275 68.1623 40.3775 68.4792C40.7375 68.5487 41 68.8656 41 69.2366V71.1456C41 71.5707 41.3375 71.9185 41.75 71.9185H46.25C46.6625 71.9185 47 71.5707 47 71.1456V69.2366C47 68.8656 47.2625 68.5487 47.6225 68.4792C49.2725 68.1623 50.855 67.6213 52.3325 66.8948C52.6625 66.7402 53.0525 66.833 53.27 67.1344L54.3575 68.6801C54.5975 69.0279 55.07 69.1052 55.4075 68.8502L59.045 66.1296C59.3825 65.8746 59.4575 65.3954 59.21 65.0476L58.1225 63.5018C58.0194 63.355 57.9696 63.1754 57.982 62.9946C57.9943 62.8137 58.0679 62.6431 58.19 62.5126C59.3225 61.276 60.305 59.8848 61.1 58.3777C61.28 58.053 61.6475 57.8907 61.9925 58.0067L63.755 58.6018C63.849 58.6331 63.9482 58.645 64.0467 58.6366C64.1452 58.6283 64.2411 58.6 64.329 58.5533C64.4168 58.5066 64.4948 58.4425 64.5585 58.3646C64.6222 58.2867 64.6703 58.1966 64.7 58.0994L66.2 53.3694H58.31Z" fill="#ED3237"/>
<path d="M25.775 57.2724L24.0125 57.8598L22.5125 53.1298L21.0875 53.609L22.5875 58.3313C22.7075 58.7255 22.9775 59.0501 23.33 59.2356C23.6825 59.421 24.0875 59.4597 24.4775 59.3283L26.24 58.7409C27.065 60.2944 28.0775 61.7397 29.27 63.0459L28.1825 64.5916C27.9425 64.9239 27.845 65.3336 27.905 65.7355C27.965 66.1451 28.1825 66.5083 28.505 66.7557L32.1425 69.4762C32.4725 69.7235 32.87 69.824 33.2675 69.7544C33.665 69.6926 34.01 69.4685 34.2425 69.1361L35.3375 67.5981C36.8975 68.371 38.5475 68.9197 40.2425 69.2443V71.1533C40.2425 72.0035 40.9175 72.6991 41.7425 72.6991H46.2425C47.0675 72.6991 47.7425 72.0035 47.7425 71.1533V69.2443C49.4375 68.9197 51.0875 68.3633 52.655 67.5904L53.735 69.1284C53.9675 69.4685 54.3125 69.6849 54.71 69.7544C55.115 69.824 55.5125 69.7235 55.835 69.4762L59.4725 66.7557C59.8025 66.5083 60.0125 66.1451 60.0725 65.7355C60.1325 65.3258 60.035 64.9239 59.8025 64.5916L58.7225 63.0381C59.9075 61.7474 60.9275 60.3021 61.745 58.7332L63.5075 59.3283C63.89 59.452 64.295 59.421 64.655 59.2356C65.015 59.0423 65.2775 58.7255 65.3975 58.3313L66.8975 53.6013L65.4725 53.1221L63.9725 57.8598L62.21 57.2647C61.535 57.0329 60.7925 57.342 60.425 57.999C59.6622 59.4416 58.7219 60.7768 57.6275 61.9716C57.125 62.5203 57.0725 63.355 57.5 63.9424L58.5875 65.4881L54.95 68.2087L53.855 66.6552C53.647 66.3655 53.3477 66.1593 53.0084 66.0719C52.6691 65.9844 52.3109 66.0213 51.995 66.176C50.5475 66.8871 49.025 67.3972 47.4725 67.6986C46.76 67.8377 46.235 68.4715 46.235 69.2134V71.1224H41.735V69.2134C41.735 68.4715 41.2175 67.83 40.4975 67.6986C38.9375 67.3972 37.415 66.8871 35.96 66.1683C35.3 65.8591 34.535 66.0523 34.1075 66.6552L33.02 68.201L29.3825 65.4804L30.4625 63.9424C30.8975 63.3473 30.845 62.5126 30.335 61.9638C29.2369 60.7648 28.2941 59.4243 27.53 57.9758C27.17 57.3343 26.4275 57.0251 25.7525 57.257L25.775 57.2724Z" fill="#333333"/>
<path d="M44 64.9624C50.9225 64.9624 56.96 60.3946 59.0225 53.601L57.59 53.1373C55.7225 59.2817 50.2625 63.4166 43.9925 63.4166C37.7225 63.4166 32.2625 59.2894 30.395 53.1373L28.9625 53.601C31.025 60.3946 37.0625 64.9624 43.985 64.9624H44ZM20.75 50.2777H67.25V51.8234H20.75V50.2777ZM64.25 48.7319V37.9116C64.25 37.4865 63.9125 37.1387 63.5 37.1387H57.5V25.5455C57.5 25.1204 57.1625 24.7726 56.75 24.7726H47.75C47.3375 24.7726 47 25.1204 47 25.5455V33.2743H41V30.1828C41 29.9509 40.9025 29.7345 40.73 29.5877L36.23 25.7233C36.0954 25.6072 35.9255 25.5436 35.75 25.5436C35.5745 25.5436 35.4046 25.6072 35.27 25.7233L30.77 29.5877C30.5975 29.7345 30.5 29.9509 30.5 30.1828V36.3658H24.5C24.0875 36.3658 23.75 36.7136 23.75 37.1387V48.7319H25.25V37.9116H30.5V48.7319H32V30.5461L35.75 27.3231L39.5 30.5461V48.7319H41V34.8201H47V48.7319H48.5V26.3184H56V48.7319H57.5V38.6845H62.75V48.7319H64.25Z" fill="#333333"/>
<path d="M50 28.6373H51.5V30.183H50V28.6373ZM53 28.6373H54.5V30.183H53V28.6373ZM50 32.5017H51.5V34.0474H50V32.5017ZM53 32.5017H54.5V34.0474H53V32.5017ZM50 36.3661H51.5V37.9118H50V36.3661ZM53 36.3661H54.5V37.9118H53V36.3661ZM33.5 31.7288H38V33.2745H33.5V31.7288ZM33.5 35.5932H38V37.1389H33.5V35.5932Z" fill="#ED3237"/>
<path d="M35.8901 216.583V213.953H34.2858C33.523 213.953 32.9046 214.571 32.9046 215.334V216.402C32.9046 217.165 33.523 217.784 34.2858 217.784H35.8901V216.583ZM53.7142 213.953H52.1099V217.784H53.7142C54.477 217.784 55.0954 217.165 55.0954 216.402V215.334C55.0955 214.571 54.477 213.953 53.7142 213.953Z" fill="white"/>
<path d="M47.2419 234.507L52.1911 229.858L50.2262 229.493C49.2778 229.303 48.5955 228.202 48.5955 227.235V222.924H39.4047V227.235C39.4047 228.202 38.7223 229.303 37.774 229.493L35.8091 229.858L40.7583 234.507C42.5805 236.219 45.4195 236.219 47.2419 234.507Z" fill="white"/>
<path d="M46.3696 222.924V229.461C46.3696 230.428 47.0519 231.528 48.0003 231.719L49.6938 232.204L52.1911 229.858L50.2262 229.493C49.2778 229.302 48.5955 228.202 48.5955 227.235V222.924L46.3696 222.924Z" fill="white"/>
<path d="M49.737 229.257L44 233.545L38.263 229.257C38.1113 229.143 37.9351 229.067 37.7486 229.034C37.5621 229.002 37.3705 229.013 37.1892 229.068L27.5509 231.976C27.0425 232.129 26.5869 232.421 26.2353 232.819C25.8838 233.217 25.6502 233.706 25.5608 234.229L23.4373 246.661C23.2912 247.516 23.9503 248.297 24.8181 248.297H63.1819C64.0497 248.297 64.7088 247.516 64.5626 246.661L62.4392 234.229C62.3498 233.706 62.1162 233.217 61.7646 232.819C61.4131 232.421 60.9575 232.129 60.4491 231.976L50.8107 229.068C50.6295 229.013 50.4379 229.001 50.2514 229.034C50.0649 229.067 49.8887 229.143 49.737 229.257Z" fill="white"/>
<path d="M37.1893 229.068L35.5312 229.568L39.1905 234.688C39.3304 234.884 39.5327 235.026 39.7643 235.091C39.9958 235.157 40.2426 235.141 40.4639 235.047L44 233.545L38.263 229.257C38.1113 229.143 37.9351 229.067 37.7486 229.034C37.5621 229.001 37.3705 229.013 37.1893 229.068ZM47.5361 235.047C47.7574 235.141 48.0042 235.157 48.2357 235.092C48.4672 235.026 48.6696 234.884 48.8095 234.689L52.4688 229.568L52.46 229.565L50.8108 229.068C50.6295 229.013 50.4379 229.002 50.2514 229.035C50.0649 229.067 49.8887 229.144 49.737 229.257L44 233.545L47.5361 235.047Z" fill="white"/>
<path d="M44 233.545L41.2193 234.726L42.8449 236.616H45.1551L46.7807 234.726L44 233.545ZM45.1551 236.616H42.8449L40.7114 248.297H47.2886L45.1551 236.616Z" fill="white"/>
<path d="M49.8972 204.995C48.5137 203.804 46.5689 203.881 44 203.853C41.4311 203.882 39.4863 203.804 38.1028 204.995C36.3382 206.515 35.3822 208.771 35.3822 211.1V217.869C35.3822 220.198 38.309 226.374 44 226.374C49.691 226.374 52.6178 220.198 52.6178 217.869V211.1C52.6178 208.771 51.6617 206.515 49.8972 204.995Z" fill="white"/>
<path d="M49.8972 204.995C49.3476 204.522 48.7093 204.25 47.9787 204.091L47.9788 204.101V217.869C47.9788 219.857 45.8453 224.649 41.6805 226.008C42.3943 226.241 43.1674 226.374 44.0001 226.374C49.6911 226.374 52.6179 220.198 52.6179 217.869V211.1C52.6178 208.771 51.6617 206.515 49.8972 204.995Z" fill="white"/>
<path d="M44 246.128C44 246.128 37.5569 228.957 37.1892 229.068L27.5509 231.976C27.0425 232.129 26.5869 232.421 26.2353 232.819C25.8838 233.217 25.6502 233.705 25.5608 234.229L23.4373 246.661C23.2912 247.516 23.9503 248.297 24.8181 248.297H63.1819C64.0497 248.297 64.7088 247.516 64.5626 246.661L62.4392 234.229C62.3498 233.705 62.1162 233.217 61.7646 232.819C61.4131 232.421 60.9575 232.129 60.4491 231.976L50.8107 229.068C50.4431 228.957 44 246.128 44 246.128Z" fill="#FFA3B0"/>
<path d="M64.5627 246.661L62.4392 234.229C62.3498 233.705 62.1162 233.217 61.7647 232.819C61.4131 232.421 60.9575 232.129 60.4491 231.976L50.8108 229.068C50.7108 229.037 50.1619 230.285 49.4156 232.116L56.4059 234.225C56.6649 234.304 56.897 234.452 57.0762 234.655C57.2553 234.858 57.3743 235.107 57.4198 235.374L59.6274 248.297H63.182C64.0498 248.297 64.7088 247.516 64.5627 246.661Z" fill="#ED3237"/>
<path d="M49.1844 201.703H38.8156C36.1477 201.703 33.9849 203.866 33.9849 206.534V214.464C33.9849 214.464 35.3151 214.434 36.1699 215.28C36.3479 215.456 36.6505 215.327 36.6505 215.077V208.588C36.6505 207.409 37.6064 206.453 38.7857 206.453H40.7259C41.2347 206.453 41.7279 206.629 42.1219 206.951L42.3122 207.106C42.7885 207.496 43.3848 207.708 44 207.708C44.6152 207.708 45.2115 207.496 45.6878 207.106L45.8781 206.951C46.2721 206.629 46.7653 206.453 47.2741 206.453H49.2143C50.3936 206.453 51.3495 207.409 51.3495 208.588V215.077C51.3495 215.327 51.6521 215.456 51.8301 215.28C52.6849 214.434 54.0151 214.464 54.0151 214.464V206.534C54.0151 203.866 51.8523 201.703 49.1844 201.703Z" fill="#FFA3B0"/>
<path d="M49.1844 201.703H44.5453C47.1883 201.703 49.3343 203.826 49.3741 206.459C50.4786 206.541 51.3494 207.462 51.3494 208.588V215.077C51.3494 215.327 51.652 215.456 51.83 215.28C52.6848 214.434 54.015 214.464 54.015 214.464V206.534C54.0151 203.866 51.8524 201.703 49.1844 201.703Z" fill="#ED3237"/>
<path d="M65.2556 246.542L63.1321 234.111C62.9033 232.771 61.9531 231.695 60.6522 231.303L54.9248 229.575C54.8068 228.172 54.2273 226.847 53.2768 225.808C52.5211 224.98 51.5606 224.366 50.4921 224.027C50.6666 223.834 50.8346 223.634 50.9957 223.429C52.3577 221.697 53.0869 219.789 53.2725 218.486H53.7144C54.8636 218.486 55.7985 217.552 55.7985 216.402V215.334C55.7985 214.567 55.3671 213.872 54.7183 213.511V210.942C54.7161 210.757 54.6411 210.58 54.5095 210.45C54.378 210.32 54.2004 210.247 54.0154 210.247C53.8303 210.247 53.6528 210.32 53.5212 210.45C53.3896 210.58 53.3146 210.757 53.3125 210.942V213.826C53.0387 213.874 52.7121 213.956 52.378 214.097C52.3439 214.109 52.3108 214.124 52.279 214.141C52.2035 214.175 52.1279 214.212 52.0527 214.253V208.588C52.0527 207.023 50.7795 205.75 49.2146 205.75H47.2744C46.6035 205.75 45.9533 205.982 45.4334 206.407L45.243 206.562C44.8933 206.848 44.452 207.006 44.0002 207.006C43.5484 207.006 43.1069 206.848 42.7573 206.562L42.5669 206.407C42.0471 205.982 41.3969 205.75 40.726 205.75H38.7856C37.2207 205.75 35.9475 207.023 35.9475 208.588V214.253C35.8734 214.213 35.7979 214.175 35.7212 214.141C35.6894 214.124 35.6564 214.109 35.6223 214.097C35.2882 213.956 34.9615 213.874 34.6878 213.826V206.534C34.6878 204.258 36.5396 202.406 38.8156 202.406H49.1845C51.4606 202.406 53.3123 204.258 53.3123 206.534V207.639C53.3112 207.732 53.3286 207.824 53.3634 207.91C53.3983 207.996 53.4499 208.075 53.5153 208.141C53.5806 208.207 53.6585 208.259 53.7443 208.295C53.8301 208.331 53.9222 208.35 54.0152 208.35C54.1082 208.35 54.2002 208.331 54.2861 208.295C54.3719 208.259 54.4497 208.207 54.5151 208.141C54.5805 208.075 54.6321 207.996 54.6669 207.91C54.7018 207.824 54.7191 207.732 54.7181 207.639V206.534C54.7181 203.482 52.2357 201 49.1845 201H38.8156C35.7643 201 33.282 203.482 33.282 206.534V213.511C32.6332 213.872 32.2018 214.567 32.2018 215.334V216.402C32.2018 217.552 33.1367 218.487 34.2859 218.487H34.7278C34.9133 219.789 35.6426 221.697 37.0046 223.429C37.1656 223.634 37.3334 223.833 37.5077 224.027C35.0721 224.8 33.2959 226.99 33.0755 229.575L27.3479 231.303C26.047 231.695 25.0967 232.771 24.868 234.111L24.0057 239.159C23.9743 239.343 24.0172 239.531 24.1249 239.684C24.2327 239.836 24.3964 239.939 24.5802 239.97C24.764 240.002 24.9527 239.959 25.1048 239.851C25.2569 239.743 25.36 239.579 25.3914 239.396L26.2537 234.347C26.3921 233.537 26.9669 232.886 27.754 232.649L33.0513 231.05V232.441C31.8371 232.664 30.8038 233.498 30.3783 234.654C30.2653 234.961 30.195 235.282 30.1696 235.609L29.6577 242.18C29.6388 242.426 29.6708 242.672 29.7516 242.905C29.8324 243.138 29.9603 243.351 30.1273 243.532C30.2948 243.713 30.4977 243.857 30.7233 243.955C30.949 244.054 31.1925 244.105 31.4388 244.105H32.3152C32.5016 244.105 32.6804 244.031 32.8122 243.9C32.944 243.768 33.0181 243.589 33.0181 243.403C33.0181 243.216 32.944 243.037 32.8122 242.906C32.6804 242.774 32.5016 242.7 32.3152 242.7H31.4388C31.3863 242.7 31.3344 242.689 31.2863 242.668C31.2382 242.647 31.1949 242.616 31.1593 242.577C31.1237 242.539 31.0964 242.493 31.0792 242.444C31.062 242.394 31.0552 242.342 31.0592 242.289L31.5712 235.718C31.5866 235.52 31.6291 235.326 31.6976 235.14C31.9936 234.336 32.7931 233.791 33.6872 233.785L33.803 233.784L33.8191 233.784C34.6881 233.784 35.4573 234.277 35.7818 235.043C35.8727 235.258 35.9283 235.485 35.9463 235.718L36.4585 242.289C36.4624 242.342 36.4556 242.394 36.4384 242.444C36.4212 242.493 36.3939 242.539 36.3583 242.578C36.3226 242.616 36.2794 242.647 36.2313 242.668C36.1832 242.689 36.1313 242.7 36.0788 242.7H35.2024C35.016 242.7 34.8372 242.774 34.7054 242.906C34.5736 243.037 34.4995 243.216 34.4995 243.403C34.4995 243.589 34.5736 243.768 34.7054 243.9C34.8372 244.031 35.016 244.105 35.2024 244.105H36.0788C36.3251 244.105 36.5686 244.054 36.7943 243.955C37.0199 243.857 37.2228 243.713 37.3903 243.532C37.5573 243.351 37.6852 243.138 37.766 242.905C37.8469 242.672 37.8789 242.426 37.86 242.18L37.3479 235.609C37.3181 235.225 37.2264 234.849 37.0762 234.494C36.6132 233.402 35.6231 232.642 34.457 232.436V230.626L36.8733 229.897C37.0932 230.36 37.5288 231.361 38.3918 233.518C39.2615 235.694 40.3425 238.483 41.3793 241.195C41.3867 241.218 41.3953 241.24 41.4048 241.262C42.0555 242.965 42.7012 244.669 43.3419 246.375C43.3921 246.509 43.4821 246.625 43.5997 246.706C43.7173 246.788 43.8569 246.831 44 246.831C44.1431 246.831 44.2827 246.788 44.4003 246.706C44.5179 246.625 44.6079 246.509 44.6581 246.375C45.2987 244.669 45.9444 242.965 46.5952 241.262C46.6048 241.24 46.6133 241.218 46.6207 241.195C47.6567 238.485 48.7372 235.697 49.6065 233.522C50.4706 231.362 50.9067 230.361 51.1266 229.897L53.5429 230.626V234.778C51.8687 235.103 50.6006 236.58 50.6006 238.348C50.6006 240.353 52.2321 241.985 54.2376 241.985C56.2431 241.985 57.8746 240.353 57.8746 238.348C57.8746 236.586 56.6148 235.113 54.9487 234.781V231.05L60.2461 232.649C61.0332 232.886 61.6079 233.537 61.7464 234.347L63.8698 246.779C63.8877 246.879 63.8831 246.982 63.8564 247.08C63.8297 247.178 63.7815 247.269 63.7153 247.346C63.6503 247.425 63.5687 247.487 63.4765 247.53C63.3842 247.573 63.2836 247.595 63.1819 247.594H24.8181C24.7164 247.595 24.6158 247.573 24.5235 247.53C24.4313 247.487 24.3497 247.425 24.2847 247.346C24.2185 247.269 24.1703 247.178 24.1436 247.08C24.1169 246.982 24.1123 246.879 24.1302 246.779L24.8309 242.676C24.8623 242.492 24.8194 242.304 24.7117 242.152C24.6039 242 24.4402 241.896 24.2564 241.865C23.8739 241.799 23.5107 242.057 23.4452 242.44L22.7444 246.542C22.6926 246.844 22.7075 247.154 22.7879 247.449C22.8684 247.745 23.0125 248.019 23.2102 248.253C23.4075 248.487 23.6537 248.675 23.9314 248.805C24.2092 248.934 24.5118 249 24.8181 249H63.1819C63.4882 249 63.7908 248.934 64.0686 248.805C64.3464 248.675 64.5925 248.487 64.7898 248.253C64.9875 248.019 65.1316 247.745 65.2121 247.449C65.2925 247.154 65.3074 246.844 65.2556 246.542ZM53.3207 215.258C53.6953 215.165 53.9959 215.167 53.9993 215.167C54.1188 215.169 54.2369 215.141 54.3428 215.085C54.3741 215.163 54.3926 215.247 54.3926 215.334V216.402C54.3926 216.776 54.0883 217.081 53.7142 217.081H53.3207V215.258ZM34.6793 217.081H34.2858C33.9118 217.081 33.6074 216.776 33.6074 216.402V215.334C33.6074 215.247 33.626 215.163 33.6572 215.085C33.7631 215.141 33.8812 215.169 34.0007 215.167C34.0061 215.168 34.3059 215.166 34.6793 215.259V217.081ZM36.0851 217.869V216.022C36.2981 216.086 36.531 216.077 36.7461 215.988C36.9261 215.913 37.0799 215.787 37.188 215.624C37.2961 215.462 37.3536 215.272 37.3533 215.077V208.588C37.3533 207.798 37.9959 207.156 38.7856 207.156H40.7258C41.0715 207.156 41.4093 207.276 41.677 207.495L41.8673 207.651C42.4695 208.142 43.2227 208.411 44 208.411C44.7773 208.411 45.5305 208.142 46.1327 207.651L46.323 207.495C46.5916 207.276 46.9276 207.156 47.2742 207.156H49.2144C50.0041 207.156 50.6467 207.798 50.6467 208.588V215.077C50.6467 215.476 50.885 215.834 51.2539 215.988C51.4635 216.076 51.6972 216.088 51.9149 216.023V217.869C51.9149 218.895 51.2054 220.888 49.8905 222.56C49.4549 223.114 48.8951 223.71 48.2057 224.23C48.1839 224.244 48.163 224.26 48.143 224.277C47.0751 225.067 45.7019 225.671 44 225.671C42.2981 225.671 40.9249 225.067 39.8569 224.277C39.8369 224.26 39.8161 224.244 39.7944 224.23C39.105 223.71 38.5452 223.114 38.1095 222.56C36.7947 220.888 36.0851 218.895 36.0851 217.869ZM48.605 229.225L44 232.667L39.395 229.225C39.8517 228.645 40.1075 227.9 40.1075 227.235V226.102C41.1904 226.684 42.4826 227.077 44 227.077C45.5174 227.077 46.8097 226.684 47.8925 226.102V227.235C47.8925 227.9 48.1483 228.645 48.605 229.225ZM38.2219 228.441C37.843 228.296 37.4282 228.275 37.0367 228.381C37.0197 228.385 37.0029 228.39 36.9862 228.395L34.5578 229.127C34.9685 227.108 36.6084 225.5 38.7017 225.189V227.235C38.7017 227.676 38.5048 228.132 38.2219 228.441ZM40.1296 234.083L40.1258 234.074C40.0844 233.969 40.0429 233.864 40.0013 233.759L39.8999 233.504L39.8929 233.486C39.7929 233.235 39.6925 232.984 39.5918 232.733L39.5707 232.68L39.4886 232.476L39.4589 232.403C39.4327 232.338 39.4066 232.273 39.3809 232.21L39.3582 232.153C39.2836 231.97 39.2089 231.786 39.1339 231.603L39.0792 231.469L39.0586 231.419L39.0429 231.381C38.9617 231.184 38.8845 230.998 38.8113 230.823L38.8095 230.819C38.7705 230.726 38.7324 230.635 38.6957 230.548L38.6396 230.416L42.6 233.376L40.9452 234.079L40.9363 234.083L40.2454 234.376L40.1296 234.083ZM41.8068 238.387C41.6675 238.026 41.5279 237.664 41.3879 237.303C41.1791 236.763 40.9695 236.224 40.7591 235.685L41.0214 235.574L42.0931 236.82L41.8068 238.387ZM44.0136 244.1C43.9936 244.059 43.9695 244.019 43.9417 243.982C43.6241 243.143 43.2209 242.08 42.7748 240.912L43.431 237.319H44.569L45.2252 240.912C44.8197 241.974 44.4158 243.037 44.0136 244.1ZM44.8326 235.913H43.1674L42.3794 234.997L44 234.309L45.6206 234.997L44.8326 235.913ZM46.6121 237.303C46.4722 237.664 46.3325 238.026 46.1932 238.387L45.9069 236.82L46.9786 235.574L47.2409 235.685C47.0406 236.198 46.8313 236.736 46.6121 237.303ZM49.3044 230.548C49.2683 230.633 49.2323 230.719 49.1966 230.804L49.1821 230.839C49.1457 230.926 49.1085 231.015 49.0701 231.108L49.0624 231.127C49.0292 231.207 48.9952 231.289 48.9606 231.373L48.9416 231.419L48.9178 231.477L48.8711 231.591L48.8128 231.734L48.7936 231.78C48.7433 231.904 48.6931 232.027 48.6431 232.151L48.619 232.21L48.5417 232.401L48.5112 232.477L48.4299 232.679L48.4067 232.737C48.3074 232.984 48.2084 233.232 48.1098 233.48L48.0997 233.505L47.999 233.759L47.98 233.807L47.8738 234.075L47.8718 234.08L47.7548 234.376L47.0632 234.083L47.056 234.079L45.4002 233.376L49.3606 230.416C49.3421 230.459 49.3233 230.503 49.3044 230.548ZM51.0138 228.395L51.0134 228.395C51.0129 228.394 51.0122 228.394 51.0117 228.394C50.6038 228.272 50.1688 228.292 49.7782 228.441C49.4952 228.132 49.2984 227.676 49.2984 227.235V225.188C50.3121 225.335 51.2552 225.794 51.9978 226.499C52.7404 227.205 53.2461 228.123 53.4451 229.128L51.0138 228.395ZM56.4688 238.348C56.4688 239.578 55.4679 240.579 54.2376 240.579C53.0073 240.579 52.0063 239.578 52.0063 238.348C52.0063 237.117 53.0073 236.116 54.2376 236.116C55.4679 236.116 56.4688 237.117 56.4688 238.348Z" fill="#333333"/>
<path d="M53.9375 394.281V395.844H52.375V397.406H49.25V395.844H47.6875V394.281H53.9375ZM64.875 412.25V419.281H58.625C58.625 418.867 58.4604 418.469 58.1674 418.176C57.8743 417.883 57.4769 417.719 57.0625 417.719C56.6481 417.719 56.2507 417.883 55.9576 418.176C55.6646 418.469 55.5 418.867 55.5 419.281H35.9688V412.25H64.875Z" fill="#57A4FF"/>
<path d="M64.875 412.25V419.281H58.625C58.625 418.867 58.4604 418.469 58.1674 418.176C57.8743 417.883 57.4769 417.719 57.0625 417.719C56.6481 417.719 56.2507 417.883 55.9576 418.176C55.6646 418.469 55.5 418.867 55.5 419.281H35.9688V412.25H64.875ZM25.0312 412.25C25.0315 412.455 24.9913 412.659 24.9129 412.848C24.8344 413.038 24.7194 413.21 24.5742 413.355C24.4291 413.501 24.2567 413.616 24.067 413.694C23.8773 413.773 23.674 413.813 23.4688 413.812H21.125V410.688H23.4688C23.8832 410.688 24.2806 410.852 24.5736 411.145C24.8666 411.438 25.0312 411.836 25.0312 412.25ZM32.8438 408.344H21.125L26.0361 399.75H32.8438V408.344ZM33.625 419.281H31.2812C31.2812 418.867 31.1166 418.469 30.8236 418.176C30.5306 417.883 30.1332 417.719 29.7188 417.719C29.3043 417.719 28.9069 417.883 28.6139 418.176C28.3209 418.469 28.1562 418.867 28.1562 419.281H25.8125C25.8125 418.245 26.2241 417.252 26.9566 416.519C27.6892 415.787 28.6827 415.375 29.7188 415.375C30.7548 415.375 31.7483 415.787 32.4809 416.519C33.2134 417.252 33.625 418.245 33.625 419.281Z" fill="#ED3237"/>
<path d="M29.7188 415.375C28.9462 415.375 28.1909 415.604 27.5486 416.033C26.9062 416.463 26.4055 417.073 26.1098 417.786C25.8142 418.5 25.7368 419.286 25.8876 420.043C26.0383 420.801 26.4103 421.497 26.9566 422.043C27.5029 422.59 28.1989 422.962 28.9567 423.112C29.7144 423.263 30.4998 423.186 31.2136 422.89C31.9274 422.594 32.5375 422.094 32.9667 421.451C33.3959 420.809 33.625 420.054 33.625 419.281C33.625 418.245 33.2134 417.252 32.4809 416.519C31.7483 415.787 30.7548 415.375 29.7188 415.375ZM29.7188 420.844C29.4097 420.844 29.1076 420.752 28.8507 420.58C28.5937 420.409 28.3935 420.165 28.2752 419.879C28.1569 419.594 28.126 419.28 28.1863 418.976C28.2466 418.673 28.3954 418.395 28.6139 418.176C28.8324 417.958 29.1108 417.809 29.4139 417.749C29.717 417.688 30.0312 417.719 30.3167 417.838C30.6022 417.956 30.8462 418.156 31.0179 418.413C31.1896 418.67 31.2812 418.972 31.2812 419.281C31.2812 419.696 31.1166 420.093 30.8236 420.386C30.5306 420.679 30.1332 420.844 29.7188 420.844ZM57.0625 415.375C56.2899 415.375 55.5347 415.604 54.8923 416.033C54.2499 416.463 53.7493 417.073 53.4536 417.786C53.1579 418.5 53.0806 419.286 53.2313 420.043C53.382 420.801 53.7541 421.497 54.3004 422.043C54.8467 422.59 55.5427 422.962 56.3004 423.112C57.0582 423.263 57.8436 423.186 58.5574 422.89C59.2711 422.594 59.8812 422.094 60.3104 421.451C60.7397 420.809 60.9688 420.054 60.9688 419.281C60.9688 418.245 60.5572 417.252 59.8246 416.519C59.0921 415.787 58.0985 415.375 57.0625 415.375ZM57.0625 420.844C56.7535 420.844 56.4514 420.752 56.1944 420.58C55.9375 420.409 55.7372 420.165 55.6189 419.879C55.5007 419.594 55.4697 419.28 55.53 418.976C55.5903 418.673 55.7391 418.395 55.9576 418.176C56.1762 417.958 56.4546 417.809 56.7577 417.749C57.0608 417.688 57.3749 417.719 57.6604 417.838C57.946 417.956 58.19 418.156 58.3617 418.413C58.5334 418.67 58.625 418.972 58.625 419.281C58.625 419.696 58.4604 420.093 58.1674 420.386C57.8743 420.679 57.4769 420.844 57.0625 420.844ZM32.8438 399.75V408.344H21.125L26.0361 399.75H32.8438ZM25.0312 412.25C25.0315 412.455 24.9913 412.659 24.9129 412.848C24.8344 413.038 24.7194 413.21 24.5742 413.355C24.4291 413.501 24.2567 413.616 24.067 413.694C23.8773 413.773 23.674 413.813 23.4688 413.812H21.125V410.688H23.4688C23.8832 410.688 24.2806 410.852 24.5736 411.145C24.8666 411.438 25.0312 411.836 25.0312 412.25ZM53.9375 392.719V395.844H52.375V397.406H49.25V395.844H47.6875V392.719H49.25V391.156H52.375V392.719H53.9375Z" fill="#ED3237"/>
<path d="M53.9375 392.719V395.844H52.375V397.406H49.25V395.844H47.6875V392.719H49.25V391.156H52.375V392.719H53.9375Z" fill="#ED3237"/>
<path d="M29.7188 421.625C30.1823 421.625 30.6354 421.488 31.0209 421.23C31.4063 420.972 31.7067 420.606 31.8841 420.178C32.0615 419.75 32.1079 419.279 32.0175 418.824C31.927 418.369 31.7038 417.952 31.376 417.624C31.0483 417.296 30.6306 417.073 30.176 416.983C29.7213 416.892 29.2501 416.939 28.8218 417.116C28.3936 417.293 28.0275 417.594 27.77 417.979C27.5125 418.365 27.375 418.818 27.375 419.281C27.3757 419.903 27.6229 420.498 28.0623 420.938C28.5016 421.377 29.0974 421.624 29.7188 421.625ZM29.7188 418.5C29.8733 418.5 30.0243 418.546 30.1528 418.632C30.2813 418.718 30.3814 418.84 30.4405 418.982C30.4997 419.125 30.5151 419.282 30.485 419.434C30.4548 419.585 30.3804 419.724 30.2712 419.834C30.1619 419.943 30.0227 420.017 29.8712 420.047C29.7196 420.078 29.5625 420.062 29.4198 420.003C29.277 419.944 29.155 419.844 29.0692 419.715C28.9833 419.587 28.9375 419.436 28.9375 419.281C28.9377 419.074 29.0201 418.876 29.1666 418.729C29.313 418.583 29.5116 418.5 29.7188 418.5ZM57.0625 416.938C56.599 416.938 56.1458 417.075 55.7604 417.332C55.375 417.59 55.0746 417.956 54.8972 418.384C54.7198 418.813 54.6734 419.284 54.7638 419.738C54.8542 420.193 55.0774 420.611 55.4052 420.939C55.733 421.266 56.1506 421.49 56.6053 421.58C57.0599 421.67 57.5311 421.624 57.9594 421.447C58.3877 421.269 58.7537 420.969 59.0113 420.583C59.2688 420.198 59.4062 419.745 59.4062 419.281C59.4055 418.66 59.1584 418.064 58.719 417.625C58.2796 417.185 57.6839 416.938 57.0625 416.938ZM57.0625 420.063C56.908 420.063 56.7569 420.017 56.6285 419.931C56.5 419.845 56.3999 419.723 56.3407 419.58C56.2816 419.437 56.2661 419.28 56.2963 419.129C56.3264 418.977 56.4008 418.838 56.5101 418.729C56.6193 418.62 56.7585 418.545 56.9101 418.515C57.0616 418.485 57.2187 418.5 57.3615 418.559C57.5042 418.619 57.6262 418.719 57.7121 418.847C57.7979 418.976 57.8438 419.127 57.8438 419.281C57.8435 419.488 57.7611 419.687 57.6147 419.833C57.4682 419.98 57.2696 420.062 57.0625 420.063Z" fill="white"/>
<path d="M64.875 393.5H62.5312V388.031C62.5312 387.824 62.4489 387.625 62.3024 387.479C62.1559 387.332 61.9572 387.25 61.75 387.25H39.0938C38.8865 387.25 38.6878 387.332 38.5413 387.479C38.3948 387.625 38.3125 387.824 38.3125 388.031V393.5H35.9688C35.7615 393.5 35.5628 393.582 35.4163 393.729C35.2698 393.875 35.1875 394.074 35.1875 394.281V396.625H27.375C27.2373 396.625 27.102 396.662 26.9828 396.731C26.8636 396.8 26.7648 396.899 26.6963 397.019L20.4463 407.956C20.379 408.074 20.3437 408.208 20.3438 408.344V419.281C20.3438 419.488 20.4261 419.687 20.5726 419.834C20.7191 419.98 20.9178 420.062 21.125 420.062H25.0977C25.2053 420.695 25.4413 421.298 25.7911 421.836C26.141 422.373 26.5973 422.833 27.1318 423.188H19.5625C19.3553 423.188 19.1566 423.27 19.0101 423.416C18.8636 423.563 18.7812 423.762 18.7812 423.969C18.7812 424.176 18.8636 424.375 19.0101 424.521C19.1566 424.668 19.3553 424.75 19.5625 424.75H63.3125C63.5197 424.75 63.7184 424.668 63.8649 424.521C64.0114 424.375 64.0938 424.176 64.0938 423.969C64.0938 423.762 64.0114 423.563 63.8649 423.416C63.7184 423.27 63.5197 423.188 63.3125 423.188H59.6494C60.184 422.833 60.6403 422.373 60.9901 421.836C61.34 421.298 61.576 420.695 61.6836 420.062H64.875C65.0822 420.062 65.2809 419.98 65.4274 419.834C65.5739 419.687 65.6562 419.488 65.6562 419.281V394.281C65.6562 394.074 65.5739 393.875 65.4274 393.729C65.2809 393.582 65.0822 393.5 64.875 393.5ZM39.875 388.812H60.9688V399.75H39.875V388.812ZM26.4893 400.531H32.0625V407.562H22.4717L26.4893 400.531ZM21.9062 411.469H23.4688C23.676 411.469 23.8747 411.551 24.0212 411.698C24.1677 411.844 24.25 412.043 24.25 412.25C24.25 412.457 24.1677 412.656 24.0212 412.802C23.8747 412.949 23.676 413.031 23.4688 413.031H21.9062V411.469ZM25.0977 418.5H21.9062V414.594H23.4688C24.0904 414.594 24.6865 414.347 25.126 413.907C25.5656 413.468 25.8125 412.872 25.8125 412.25C25.8125 411.628 25.5656 411.032 25.126 410.593C24.6865 410.153 24.0904 409.906 23.4688 409.906H21.9062V409.125H32.8438C33.051 409.125 33.2497 409.043 33.3962 408.896C33.5427 408.75 33.625 408.551 33.625 408.344V399.75C33.625 399.543 33.5427 399.344 33.3962 399.198C33.2497 399.051 33.051 398.969 32.8438 398.969H27.3818L27.8281 398.188H35.1875V418.5H34.3398C34.1554 417.408 33.5901 416.416 32.7442 415.701C31.8982 414.986 30.8264 414.594 29.7188 414.594C28.6111 414.594 27.5393 414.986 26.6933 415.701C25.8474 416.416 25.2821 417.408 25.0977 418.5ZM29.7188 422.406C29.1007 422.406 28.4965 422.223 27.9826 421.88C27.4687 421.536 27.0682 421.048 26.8316 420.477C26.5951 419.906 26.5332 419.278 26.6538 418.672C26.7744 418.065 27.072 417.509 27.509 417.072C27.9461 416.635 28.5029 416.337 29.1091 416.216C29.7153 416.096 30.3436 416.158 30.9146 416.394C31.4857 416.631 31.9737 417.031 32.3171 417.545C32.6605 418.059 32.8438 418.663 32.8438 419.281C32.8427 420.11 32.5131 420.904 31.9273 421.49C31.3414 422.076 30.5472 422.405 29.7188 422.406ZM32.3057 423.188C32.8402 422.833 33.2965 422.373 33.6464 421.836C33.9962 421.298 34.2322 420.695 34.3398 420.062H52.4414C52.549 420.695 52.785 421.298 53.1349 421.836C53.4847 422.373 53.941 422.833 54.4756 423.188H32.3057ZM57.0625 422.406C56.4444 422.406 55.8402 422.223 55.3263 421.88C54.8124 421.536 54.4119 421.048 54.1754 420.477C53.9389 419.906 53.877 419.278 53.9975 418.672C54.1181 418.065 54.4158 417.509 54.8528 417.072C55.2898 416.635 55.8467 416.337 56.4528 416.216C57.059 416.096 57.6874 416.158 58.2584 416.394C58.8294 416.631 59.3175 417.031 59.6608 417.545C60.0042 418.059 60.1875 418.663 60.1875 419.281C60.1864 420.11 59.8568 420.904 59.271 421.49C58.6852 422.076 57.891 422.405 57.0625 422.406ZM64.0938 418.5H61.6836C61.4992 417.408 60.9338 416.416 60.0879 415.701C59.242 414.986 58.1701 414.594 57.0625 414.594C55.9549 414.594 54.883 414.986 54.0371 415.701C53.1912 416.416 52.6258 417.408 52.4414 418.5H36.75V413.031H64.0938V418.5ZM64.0938 411.469H36.75V395.062H38.3125V400.531C38.3125 400.738 38.3948 400.937 38.5413 401.084C38.6878 401.23 38.8865 401.312 39.0938 401.312H61.75C61.9572 401.312 62.1559 401.23 62.3024 401.084C62.4489 400.937 62.5312 400.738 62.5312 400.531V395.062H64.0938V411.469ZM66.4375 423.188H65.6562C65.449 423.188 65.2503 423.27 65.1038 423.416C64.9573 423.563 64.875 423.762 64.875 423.969C64.875 424.176 64.9573 424.375 65.1038 424.521C65.2503 424.668 65.449 424.75 65.6562 424.75H66.4375C66.6447 424.75 66.8434 424.668 66.9899 424.521C67.1364 424.375 67.2188 424.176 67.2188 423.969C67.2188 423.762 67.1364 423.563 66.9899 423.416C66.8434 423.27 66.6447 423.188 66.4375 423.188Z" fill="#333333"/>
<path d="M47.6875 396.625H48.4688V397.406C48.4688 397.613 48.5511 397.812 48.6976 397.959C48.8441 398.105 49.0428 398.188 49.25 398.188H52.375C52.5822 398.188 52.7809 398.105 52.9274 397.959C53.0739 397.812 53.1562 397.613 53.1562 397.406V396.625H53.9375C54.1447 396.625 54.3434 396.543 54.4899 396.396C54.6364 396.25 54.7188 396.051 54.7188 395.844V392.719C54.7188 392.512 54.6364 392.313 54.4899 392.166C54.3434 392.02 54.1447 391.938 53.9375 391.938H53.1562V391.156C53.1562 390.949 53.0739 390.75 52.9274 390.604C52.7809 390.457 52.5822 390.375 52.375 390.375H49.25C49.0428 390.375 48.8441 390.457 48.6976 390.604C48.5511 390.75 48.4688 390.949 48.4688 391.156V391.938H47.6875C47.4803 391.938 47.2816 392.02 47.1351 392.166C46.9886 392.313 46.9062 392.512 46.9062 392.719V395.844C46.9062 396.051 46.9886 396.25 47.1351 396.396C47.2816 396.543 47.4803 396.625 47.6875 396.625ZM48.4688 393.5H49.25C49.4572 393.5 49.6559 393.418 49.8024 393.271C49.9489 393.125 50.0312 392.926 50.0312 392.719V391.938H51.5938V392.719C51.5938 392.926 51.6761 393.125 51.8226 393.271C51.9691 393.418 52.1678 393.5 52.375 393.5H53.1562V395.062H52.375C52.1678 395.062 51.9691 395.145 51.8226 395.291C51.6761 395.438 51.5938 395.637 51.5938 395.844V396.625H50.0312V395.844C50.0312 395.637 49.9489 395.438 49.8024 395.291C49.6559 395.145 49.4572 395.062 49.25 395.062H48.4688V393.5Z" fill="white"/>
</svg>
